solid CATIA STL
  facet normal  0.000000e+000  0.000000e+000 -1.000000e+000
    outer loop
      vertex  5.000000e+001  0.000000e+000  0.000000e+000
      vertex  5.000000e+001 -7.000000e+001  0.000000e+000
      vertex  3.000000e+001 -2.000000e+001  0.000000e+000
    endloop
  endfacet
  facet normal  0.000000e+000  0.000000e+000 -1.000000e+000
    outer loop
      vertex  5.000000e+001  0.000000e+000  0.000000e+000
      vertex  3.000000e+001 -2.000000e+001  0.000000e+000
      vertex  2.923880e+001 -1.617317e+001  0.000000e+000
    endloop
  endfacet
  facet normal  0.000000e+000  0.000000e+000 -1.000000e+000
    outer loop
      vertex  5.000000e+001  0.000000e+000  0.000000e+000
      vertex  2.923880e+001 -1.617317e+001  0.000000e+000
      vertex  2.707107e+001 -1.292893e+001  0.000000e+000
    endloop
  endfacet
  facet normal  0.000000e+000  0.000000e+000 -1.000000e+000
    outer loop
      vertex  5.000000e+001  0.000000e+000  0.000000e+000
      vertex  2.707107e+001 -1.292893e+001  0.000000e+000
      vertex  2.382683e+001 -1.076120e+001  0.000000e+000
    endloop
  endfacet
  facet normal  0.000000e+000  0.000000e+000 -1.000000e+000
    outer loop
      vertex  5.000000e+001  0.000000e+000  0.000000e+000
      vertex  2.382683e+001 -1.076120e+001  0.000000e+000
      vertex -2.000000e+001  0.000000e+000  0.000000e+000
    endloop
  endfacet
  facet normal  0.000000e+000  0.000000e+000 -1.000000e+000
    outer loop
      vertex -2.000000e+001 -7.000000e+001  0.000000e+000
      vertex -2.000000e+001  0.000000e+000  0.000000e+000
      vertex  1.000000e+001 -3.000000e+001  0.000000e+000
    endloop
  endfacet
  facet normal  0.000000e+000  -0.000000e+000 -1.000000e+000
    outer loop
      vertex -2.000000e+001 -7.000000e+001  0.000000e+000
      vertex  1.000000e+001 -3.000000e+001  0.000000e+000
      vertex  1.000000e+001 -5.000000e+001  0.000000e+000
    endloop
  endfacet
  facet normal  0.000000e+000  -0.000000e+000 -1.000000e+000
    outer loop
      vertex -2.000000e+001 -7.000000e+001  0.000000e+000
      vertex  1.000000e+001 -5.000000e+001  0.000000e+000
      vertex  1.076120e+001 -5.382684e+001  0.000000e+000
    endloop
  endfacet
  facet normal  0.000000e+000  -0.000000e+000 -1.000000e+000
    outer loop
      vertex -2.000000e+001 -7.000000e+001  0.000000e+000
      vertex  1.076120e+001 -5.382684e+001  0.000000e+000
      vertex  1.292893e+001 -5.707107e+001  0.000000e+000
    endloop
  endfacet
  facet normal  0.000000e+000  -0.000000e+000 -1.000000e+000
    outer loop
      vertex -2.000000e+001 -7.000000e+001  0.000000e+000
      vertex  1.292893e+001 -5.707107e+001  0.000000e+000
      vertex  1.617317e+001 -5.923880e+001  0.000000e+000
    endloop
  endfacet
  facet normal  0.000000e+000  -0.000000e+000 -9.999999e-001
    outer loop
      vertex -2.000000e+001 -7.000000e+001  0.000000e+000
      vertex  1.617317e+001 -5.923880e+001  0.000000e+000
      vertex  2.000000e+001 -6.000000e+001  0.000000e+000
    endloop
  endfacet
  facet normal  0.000000e+000  -0.000000e+000 -9.999999e-001
    outer loop
      vertex -2.000000e+001 -7.000000e+001  0.000000e+000
      vertex  2.000000e+001 -6.000000e+001  0.000000e+000
      vertex  2.382683e+001 -5.923880e+001  0.000000e+000
    endloop
  endfacet
  facet normal  0.000000e+000  0.000000e+000 -1.000000e+000
    outer loop
      vertex  5.000000e+001 -7.000000e+001  0.000000e+000
      vertex -2.000000e+001 -7.000000e+001  0.000000e+000
      vertex  2.382683e+001 -5.923880e+001  0.000000e+000
    endloop
  endfacet
  facet normal  0.000000e+000  0.000000e+000 -1.000000e+000
    outer loop
      vertex  5.000000e+001 -7.000000e+001  0.000000e+000
      vertex  2.382683e+001 -5.923880e+001  0.000000e+000
      vertex  2.707107e+001 -5.707107e+001  0.000000e+000
    endloop
  endfacet
  facet normal  0.000000e+000  0.000000e+000 -1.000000e+000
    outer loop
      vertex  5.000000e+001 -7.000000e+001  0.000000e+000
      vertex  2.707107e+001 -5.707107e+001  0.000000e+000
      vertex  2.923880e+001 -5.382684e+001  0.000000e+000
    endloop
  endfacet
  facet normal  0.000000e+000  0.000000e+000 -1.000000e+000
    outer loop
      vertex  5.000000e+001 -7.000000e+001  0.000000e+000
      vertex  2.923880e+001 -5.382684e+001  0.000000e+000
      vertex  3.000000e+001 -5.000000e+001  0.000000e+000
    endloop
  endfacet
  facet normal  0.000000e+000  0.000000e+000 -1.000000e+000
    outer loop
      vertex  5.000000e+001 -7.000000e+001  0.000000e+000
      vertex  3.000000e+001 -5.000000e+001  0.000000e+000
      vertex  3.000000e+001 -2.000000e+001  0.000000e+000
    endloop
  endfacet
  facet normal  0.000000e+000  0.000000e+000 -1.000000e+000
    outer loop
      vertex -2.000000e+001  0.000000e+000  0.000000e+000
      vertex  2.382683e+001 -1.076120e+001  0.000000e+000
      vertex  2.000000e+001 -1.000000e+001  0.000000e+000
    endloop
  endfacet
  facet normal  -0.000000e+000  0.000000e+000 -1.000000e+000
    outer loop
      vertex -2.000000e+001  0.000000e+000  0.000000e+000
      vertex  2.000000e+001 -1.000000e+001  0.000000e+000
      vertex  1.617317e+001 -1.076120e+001  0.000000e+000
    endloop
  endfacet
  facet normal  -0.000000e+000  0.000000e+000 -1.000000e+000
    outer loop
      vertex -2.000000e+001  0.000000e+000  0.000000e+000
      vertex  1.617317e+001 -1.076120e+001  0.000000e+000
      vertex  1.292893e+001 -1.292893e+001  0.000000e+000
    endloop
  endfacet
  facet normal  -0.000000e+000  0.000000e+000 -1.000000e+000
    outer loop
      vertex -2.000000e+001  0.000000e+000  0.000000e+000
      vertex  1.292893e+001 -1.292893e+001  0.000000e+000
      vertex  1.076120e+001 -1.617317e+001  0.000000e+000
    endloop
  endfacet
  facet normal  -0.000000e+000  0.000000e+000 -1.000000e+000
    outer loop
      vertex -2.000000e+001  0.000000e+000  0.000000e+000
      vertex  1.076120e+001 -1.617317e+001  0.000000e+000
      vertex  1.000000e+001 -2.000000e+001  0.000000e+000
    endloop
  endfacet
  facet normal  -0.000000e+000  -0.000000e+000 -1.000000e+000
    outer loop
      vertex -2.000000e+001  0.000000e+000  0.000000e+000
      vertex  1.000000e+001 -2.000000e+001  0.000000e+000
      vertex  1.000000e+001 -3.000000e+001  0.000000e+000
    endloop
  endfacet
  facet normal  -0.000000e+000  -0.000000e+000 -1.000000e+000
    outer loop
      vertex -6.000000e+001  0.000000e+000  0.000000e+000
      vertex -5.000000e+001  0.000000e+000  0.000000e+000
      vertex -5.000000e+001 -7.000000e+001  0.000000e+000
    endloop
  endfacet
  facet normal  0.000000e+000  0.000000e+000 -1.000000e+000
    outer loop
      vertex -6.000000e+001  0.000000e+000  0.000000e+000
      vertex -5.000000e+001 -7.000000e+001  0.000000e+000
      vertex -7.000000e+001 -5.000000e+001  0.000000e+000
    endloop
  endfacet
  facet normal  0.000000e+000  0.000000e+000 -1.000000e+000
    outer loop
      vertex -6.000000e+001  0.000000e+000  0.000000e+000
      vertex -7.000000e+001 -5.000000e+001  0.000000e+000
      vertex -7.076121e+001 -4.617316e+001  0.000000e+000
    endloop
  endfacet
  facet normal  0.000000e+000  0.000000e+000 -1.000000e+000
    outer loop
      vertex -6.000000e+001  0.000000e+000  0.000000e+000
      vertex -7.076121e+001 -4.617316e+001  0.000000e+000
      vertex -9.500000e+001  0.000000e+000  0.000000e+000
    endloop
  endfacet
  facet normal  0.000000e+000  0.000000e+000 -1.000000e+000
    outer loop
      vertex -5.000000e+001 -7.000000e+001  0.000000e+000
      vertex -1.700000e+002 -7.000000e+001  0.000000e+000
      vertex -1.500000e+002 -6.000000e+001  0.000000e+000
    endloop
  endfacet
  facet normal  0.000000e+000  0.000000e+000 -1.000000e+000
    outer loop
      vertex -5.000000e+001 -7.000000e+001  0.000000e+000
      vertex -1.500000e+002 -6.000000e+001  0.000000e+000
      vertex -8.000000e+001 -6.000000e+001  0.000000e+000
    endloop
  endfacet
  facet normal  0.000000e+000  0.000000e+000 -9.999999e-001
    outer loop
      vertex -5.000000e+001 -7.000000e+001  0.000000e+000
      vertex -8.000000e+001 -6.000000e+001  0.000000e+000
      vertex -7.617316e+001 -5.923880e+001  0.000000e+000
    endloop
  endfacet
  facet normal  0.000000e+000  0.000000e+000 -1.000000e+000
    outer loop
      vertex -5.000000e+001 -7.000000e+001  0.000000e+000
      vertex -7.617316e+001 -5.923880e+001  0.000000e+000
      vertex -7.292893e+001 -5.707107e+001  0.000000e+000
    endloop
  endfacet
  facet normal  0.000000e+000  0.000000e+000 -1.000000e+000
    outer loop
      vertex -5.000000e+001 -7.000000e+001  0.000000e+000
      vertex -7.292893e+001 -5.707107e+001  0.000000e+000
      vertex -7.076121e+001 -5.382684e+001  0.000000e+000
    endloop
  endfacet
  facet normal  0.000000e+000  0.000000e+000 -1.000000e+000
    outer loop
      vertex -5.000000e+001 -7.000000e+001  0.000000e+000
      vertex -7.076121e+001 -5.382684e+001  0.000000e+000
      vertex -7.000000e+001 -5.000000e+001  0.000000e+000
    endloop
  endfacet
  facet normal  0.000000e+000  0.000000e+000 -1.000000e+000
    outer loop
      vertex -1.700000e+002 -7.000000e+001  0.000000e+000
      vertex -1.700000e+002  0.000000e+000  0.000000e+000
      vertex -1.600000e+002 -5.000000e+001  0.000000e+000
    endloop
  endfacet
  facet normal  0.000000e+000  -0.000000e+000 -9.999999e-001
    outer loop
      vertex -1.700000e+002 -7.000000e+001  0.000000e+000
      vertex -1.600000e+002 -5.000000e+001  0.000000e+000
      vertex -1.592388e+002 -5.382684e+001  0.000000e+000
    endloop
  endfacet
  facet normal  0.000000e+000  -0.000000e+000 -1.000000e+000
    outer loop
      vertex -1.700000e+002 -7.000000e+001  0.000000e+000
      vertex -1.592388e+002 -5.382684e+001  0.000000e+000
      vertex -1.570711e+002 -5.707107e+001  0.000000e+000
    endloop
  endfacet
  facet normal  0.000000e+000  -0.000000e+000 -9.999999e-001
    outer loop
      vertex -1.700000e+002 -7.000000e+001  0.000000e+000
      vertex -1.570711e+002 -5.707107e+001  0.000000e+000
      vertex -1.538268e+002 -5.923880e+001  0.000000e+000
    endloop
  endfacet
  facet normal  0.000000e+000  -0.000000e+000 -9.999999e-001
    outer loop
      vertex -1.700000e+002 -7.000000e+001  0.000000e+000
      vertex -1.538268e+002 -5.923880e+001  0.000000e+000
      vertex -1.500000e+002 -6.000000e+001  0.000000e+000
    endloop
  endfacet
  facet normal  0.000000e+000  0.000000e+000 -9.999999e-001
    outer loop
      vertex -9.500000e+001  0.000000e+000  0.000000e+000
      vertex -7.076121e+001 -4.617316e+001  0.000000e+000
      vertex -7.292893e+001 -4.292893e+001  0.000000e+000
    endloop
  endfacet
  facet normal  0.000000e+000  0.000000e+000 -1.000000e+000
    outer loop
      vertex -9.500000e+001  0.000000e+000  0.000000e+000
      vertex -7.292893e+001 -4.292893e+001  0.000000e+000
      vertex -7.617316e+001 -4.076120e+001  0.000000e+000
    endloop
  endfacet
  facet normal  0.000000e+000  0.000000e+000 -1.000000e+000
    outer loop
      vertex -9.500000e+001  0.000000e+000  0.000000e+000
      vertex -7.617316e+001 -4.076120e+001  0.000000e+000
      vertex -8.000000e+001 -4.000000e+001  0.000000e+000
    endloop
  endfacet
  facet normal  0.000000e+000  0.000000e+000 -1.000000e+000
    outer loop
      vertex -9.500000e+001  0.000000e+000  0.000000e+000
      vertex -8.000000e+001 -4.000000e+001  0.000000e+000
      vertex -9.572646e+001 -5.982892e+000  0.000000e+000
    endloop
  endfacet
  facet normal  0.000000e+000  0.000000e+000 -1.000000e+000
    outer loop
      vertex -8.000000e+001 -4.000000e+001  0.000000e+000
      vertex -1.500000e+002 -4.000000e+001  0.000000e+000
      vertex -1.230134e+002 -2.481772e+001  0.000000e+000
    endloop
  endfacet
  facet normal  0.000000e+000  0.000000e+000 -1.000000e+000
    outer loop
      vertex -8.000000e+001 -4.000000e+001  0.000000e+000
      vertex -1.230134e+002 -2.481772e+001  0.000000e+000
      vertex -1.169866e+002 -2.481772e+001  0.000000e+000
    endloop
  endfacet
  facet normal  0.000000e+000  0.000000e+000 -1.000000e+000
    outer loop
      vertex -8.000000e+001 -4.000000e+001  0.000000e+000
      vertex -1.169866e+002 -2.481772e+001  0.000000e+000
      vertex -1.111349e+002 -2.337541e+001  0.000000e+000
    endloop
  endfacet
  facet normal  0.000000e+000  0.000000e+000 -1.000000e+000
    outer loop
      vertex -8.000000e+001 -4.000000e+001  0.000000e+000
      vertex -1.111349e+002 -2.337541e+001  0.000000e+000
      vertex -1.057984e+002 -2.057460e+001  0.000000e+000
    endloop
  endfacet
  facet normal  0.000000e+000  0.000000e+000 -1.000000e+000
    outer loop
      vertex -8.000000e+001 -4.000000e+001  0.000000e+000
      vertex -1.057984e+002 -2.057460e+001  0.000000e+000
      vertex -1.012872e+002 -1.657807e+001  0.000000e+000
    endloop
  endfacet
  facet normal  0.000000e+000  0.000000e+000 -1.000000e+000
    outer loop
      vertex -8.000000e+001 -4.000000e+001  0.000000e+000
      vertex -1.012872e+002 -1.657807e+001  0.000000e+000
      vertex -9.786360e+001 -1.161808e+001  0.000000e+000
    endloop
  endfacet
  facet normal  0.000000e+000  0.000000e+000 -1.000000e+000
    outer loop
      vertex -8.000000e+001 -4.000000e+001  0.000000e+000
      vertex -9.786360e+001 -1.161808e+001  0.000000e+000
      vertex -9.572646e+001 -5.982892e+000  0.000000e+000
    endloop
  endfacet
  facet normal  0.000000e+000  -0.000000e+000 -9.999999e-001
    outer loop
      vertex -1.500000e+002 -4.000000e+001  0.000000e+000
      vertex -1.450000e+002  0.000000e+000  0.000000e+000
      vertex -1.442735e+002 -5.982892e+000  0.000000e+000
    endloop
  endfacet
  facet normal  0.000000e+000  -0.000000e+000 -9.999999e-001
    outer loop
      vertex -1.500000e+002 -4.000000e+001  0.000000e+000
      vertex -1.442735e+002 -5.982892e+000  0.000000e+000
      vertex -1.421364e+002 -1.161808e+001  0.000000e+000
    endloop
  endfacet
  facet normal  0.000000e+000  -0.000000e+000 -1.000000e+000
    outer loop
      vertex -1.500000e+002 -4.000000e+001  0.000000e+000
      vertex -1.421364e+002 -1.161808e+001  0.000000e+000
      vertex -1.387128e+002 -1.657807e+001  0.000000e+000
    endloop
  endfacet
  facet normal  0.000000e+000  -0.000000e+000 -1.000000e+000
    outer loop
      vertex -1.500000e+002 -4.000000e+001  0.000000e+000
      vertex -1.387128e+002 -1.657807e+001  0.000000e+000
      vertex -1.342016e+002 -2.057460e+001  0.000000e+000
    endloop
  endfacet
  facet normal  0.000000e+000  -0.000000e+000 -1.000000e+000
    outer loop
      vertex -1.500000e+002 -4.000000e+001  0.000000e+000
      vertex -1.342016e+002 -2.057460e+001  0.000000e+000
      vertex -1.288651e+002 -2.337541e+001  0.000000e+000
    endloop
  endfacet
  facet normal  0.000000e+000  -0.000000e+000 -1.000000e+000
    outer loop
      vertex -1.500000e+002 -4.000000e+001  0.000000e+000
      vertex -1.288651e+002 -2.337541e+001  0.000000e+000
      vertex -1.230134e+002 -2.481772e+001  0.000000e+000
    endloop
  endfacet
  facet normal  -0.000000e+000  0.000000e+000 -1.000000e+000
    outer loop
      vertex -1.700000e+002  0.000000e+000  0.000000e+000
      vertex -1.450000e+002  0.000000e+000  0.000000e+000
      vertex -1.500000e+002 -4.000000e+001  0.000000e+000
    endloop
  endfacet
  facet normal  -0.000000e+000  0.000000e+000 -1.000000e+000
    outer loop
      vertex -1.700000e+002  0.000000e+000  0.000000e+000
      vertex -1.500000e+002 -4.000000e+001  0.000000e+000
      vertex -1.538268e+002 -4.076120e+001  0.000000e+000
    endloop
  endfacet
  facet normal  -0.000000e+000  0.000000e+000 -9.999999e-001
    outer loop
      vertex -1.700000e+002  0.000000e+000  0.000000e+000
      vertex -1.538268e+002 -4.076120e+001  0.000000e+000
      vertex -1.570711e+002 -4.292893e+001  0.000000e+000
    endloop
  endfacet
  facet normal  -0.000000e+000  0.000000e+000 -1.000000e+000
    outer loop
      vertex -1.700000e+002  0.000000e+000  0.000000e+000
      vertex -1.570711e+002 -4.292893e+001  0.000000e+000
      vertex -1.592388e+002 -4.617316e+001  0.000000e+000
    endloop
  endfacet
  facet normal  -0.000000e+000  0.000000e+000 -9.999999e-001
    outer loop
      vertex -1.700000e+002  0.000000e+000  0.000000e+000
      vertex -1.592388e+002 -4.617316e+001  0.000000e+000
      vertex -1.600000e+002 -5.000000e+001  0.000000e+000
    endloop
  endfacet
  facet normal  0.000000e+000  0.000000e+000  1.000000e+000
    outer loop
      vertex -1.000000e+001 -1.000000e+000  1.000000e+001
      vertex -1.000000e+001 -6.900000e+001  1.000000e+001
      vertex  1.076120e+001 -1.617317e+001  1.000000e+001
    endloop
  endfacet
  facet normal  0.000000e+000  -0.000000e+000  9.999999e-001
    outer loop
      vertex -1.000000e+001 -1.000000e+000  1.000000e+001
      vertex  1.076120e+001 -1.617317e+001  1.000000e+001
      vertex  1.292893e+001 -1.292893e+001  1.000000e+001
    endloop
  endfacet
  facet normal  0.000000e+000  -0.000000e+000  1.000000e+000
    outer loop
      vertex -1.000000e+001 -1.000000e+000  1.000000e+001
      vertex  1.292893e+001 -1.292893e+001  1.000000e+001
      vertex  1.617317e+001 -1.076120e+001  1.000000e+001
    endloop
  endfacet
  facet normal  0.000000e+000  -0.000000e+000  1.000000e+000
    outer loop
      vertex -1.000000e+001 -1.000000e+000  1.000000e+001
      vertex  1.617317e+001 -1.076120e+001  1.000000e+001
      vertex  4.900000e+001 -1.000000e+000  1.000000e+001
    endloop
  endfacet
  facet normal  0.000000e+000  0.000000e+000  1.000000e+000
    outer loop
      vertex -1.000000e+001 -6.900000e+001  1.000000e+001
      vertex  4.900000e+001 -6.900000e+001  1.000000e+001
      vertex  1.617317e+001 -5.923880e+001  1.000000e+001
    endloop
  endfacet
  facet normal  0.000000e+000  0.000000e+000  1.000000e+000
    outer loop
      vertex -1.000000e+001 -6.900000e+001  1.000000e+001
      vertex  1.617317e+001 -5.923880e+001  1.000000e+001
      vertex  1.292893e+001 -5.707107e+001  1.000000e+001
    endloop
  endfacet
  facet normal  0.000000e+000  0.000000e+000  9.999999e-001
    outer loop
      vertex -1.000000e+001 -6.900000e+001  1.000000e+001
      vertex  1.292893e+001 -5.707107e+001  1.000000e+001
      vertex  1.076120e+001 -5.382684e+001  1.000000e+001
    endloop
  endfacet
  facet normal  0.000000e+000  0.000000e+000  1.000000e+000
    outer loop
      vertex -1.000000e+001 -6.900000e+001  1.000000e+001
      vertex  1.076120e+001 -5.382684e+001  1.000000e+001
      vertex  1.000000e+001 -5.000000e+001  1.000000e+001
    endloop
  endfacet
  facet normal  0.000000e+000  -0.000000e+000  1.000000e+000
    outer loop
      vertex -1.000000e+001 -6.900000e+001  1.000000e+001
      vertex  1.000000e+001 -5.000000e+001  1.000000e+001
      vertex  1.000000e+001 -3.000000e+001  1.000000e+001
    endloop
  endfacet
  facet normal  0.000000e+000  -0.000000e+000  1.000000e+000
    outer loop
      vertex -1.000000e+001 -6.900000e+001  1.000000e+001
      vertex  1.000000e+001 -3.000000e+001  1.000000e+001
      vertex  1.000000e+001 -2.000000e+001  1.000000e+001
    endloop
  endfacet
  facet normal  0.000000e+000  -0.000000e+000  1.000000e+000
    outer loop
      vertex -1.000000e+001 -6.900000e+001  1.000000e+001
      vertex  1.000000e+001 -2.000000e+001  1.000000e+001
      vertex  1.076120e+001 -1.617317e+001  1.000000e+001
    endloop
  endfacet
  facet normal  0.000000e+000  0.000000e+000  1.000000e+000
    outer loop
      vertex  4.900000e+001 -6.900000e+001  1.000000e+001
      vertex  4.900000e+001 -1.000000e+000  1.000000e+001
      vertex  3.000000e+001 -2.000000e+001  1.000000e+001
    endloop
  endfacet
  facet normal  0.000000e+000  0.000000e+000  1.000000e+000
    outer loop
      vertex  4.900000e+001 -6.900000e+001  1.000000e+001
      vertex  3.000000e+001 -2.000000e+001  1.000000e+001
      vertex  3.000000e+001 -5.000000e+001  1.000000e+001
    endloop
  endfacet
  facet normal  0.000000e+000  0.000000e+000  1.000000e+000
    outer loop
      vertex  4.900000e+001 -6.900000e+001  1.000000e+001
      vertex  3.000000e+001 -5.000000e+001  1.000000e+001
      vertex  2.923880e+001 -5.382684e+001  1.000000e+001
    endloop
  endfacet
  facet normal  0.000000e+000  0.000000e+000  1.000000e+000
    outer loop
      vertex  4.900000e+001 -6.900000e+001  1.000000e+001
      vertex  2.923880e+001 -5.382684e+001  1.000000e+001
      vertex  2.707107e+001 -5.707107e+001  1.000000e+001
    endloop
  endfacet
  facet normal  0.000000e+000  0.000000e+000  1.000000e+000
    outer loop
      vertex  4.900000e+001 -6.900000e+001  1.000000e+001
      vertex  2.707107e+001 -5.707107e+001  1.000000e+001
      vertex  2.382683e+001 -5.923880e+001  1.000000e+001
    endloop
  endfacet
  facet normal  0.000000e+000  0.000000e+000  1.000000e+000
    outer loop
      vertex  4.900000e+001 -6.900000e+001  1.000000e+001
      vertex  2.382683e+001 -5.923880e+001  1.000000e+001
      vertex  2.000000e+001 -6.000000e+001  1.000000e+001
    endloop
  endfacet
  facet normal  0.000000e+000  0.000000e+000  1.000000e+000
    outer loop
      vertex  4.900000e+001 -6.900000e+001  1.000000e+001
      vertex  2.000000e+001 -6.000000e+001  1.000000e+001
      vertex  1.617317e+001 -5.923880e+001  1.000000e+001
    endloop
  endfacet
  facet normal  0.000000e+000  0.000000e+000  1.000000e+000
    outer loop
      vertex  4.900000e+001 -1.000000e+000  1.000000e+001
      vertex  1.617317e+001 -1.076120e+001  1.000000e+001
      vertex  2.000000e+001 -1.000000e+001  1.000000e+001
    endloop
  endfacet
  facet normal  -0.000000e+000  0.000000e+000  1.000000e+000
    outer loop
      vertex  4.900000e+001 -1.000000e+000  1.000000e+001
      vertex  2.000000e+001 -1.000000e+001  1.000000e+001
      vertex  2.382683e+001 -1.076120e+001  1.000000e+001
    endloop
  endfacet
  facet normal  -0.000000e+000  0.000000e+000  1.000000e+000
    outer loop
      vertex  4.900000e+001 -1.000000e+000  1.000000e+001
      vertex  2.382683e+001 -1.076120e+001  1.000000e+001
      vertex  2.707107e+001 -1.292893e+001  1.000000e+001
    endloop
  endfacet
  facet normal  -0.000000e+000  0.000000e+000  1.000000e+000
    outer loop
      vertex  4.900000e+001 -1.000000e+000  1.000000e+001
      vertex  2.707107e+001 -1.292893e+001  1.000000e+001
      vertex  2.923880e+001 -1.617317e+001  1.000000e+001
    endloop
  endfacet
  facet normal  -0.000000e+000  0.000000e+000  1.000000e+000
    outer loop
      vertex  4.900000e+001 -1.000000e+000  1.000000e+001
      vertex  2.923880e+001 -1.617317e+001  1.000000e+001
      vertex  3.000000e+001 -2.000000e+001  1.000000e+001
    endloop
  endfacet
  facet normal  0.000000e+000  0.000000e+000  9.999999e-001
    outer loop
      vertex -1.690000e+002 -6.900000e+001  1.000000e+001
      vertex -6.000000e+001 -6.900000e+001  1.000000e+001
      vertex -8.000000e+001 -6.000000e+001  1.000000e+001
    endloop
  endfacet
  facet normal  0.000000e+000  0.000000e+000  1.000000e+000
    outer loop
      vertex -1.690000e+002 -6.900000e+001  1.000000e+001
      vertex -8.000000e+001 -6.000000e+001  1.000000e+001
      vertex -1.500000e+002 -6.000000e+001  1.000000e+001
    endloop
  endfacet
  facet normal  0.000000e+000  0.000000e+000  1.000000e+000
    outer loop
      vertex -1.690000e+002 -6.900000e+001  1.000000e+001
      vertex -1.500000e+002 -6.000000e+001  1.000000e+001
      vertex -1.538268e+002 -5.923880e+001  1.000000e+001
    endloop
  endfacet
  facet normal  0.000000e+000  0.000000e+000  1.000000e+000
    outer loop
      vertex -1.690000e+002 -6.900000e+001  1.000000e+001
      vertex -1.538268e+002 -5.923880e+001  1.000000e+001
      vertex -1.570711e+002 -5.707107e+001  1.000000e+001
    endloop
  endfacet
  facet normal  0.000000e+000  0.000000e+000  1.000000e+000
    outer loop
      vertex -1.690000e+002 -6.900000e+001  1.000000e+001
      vertex -1.570711e+002 -5.707107e+001  1.000000e+001
      vertex -1.592388e+002 -5.382684e+001  1.000000e+001
    endloop
  endfacet
  facet normal  0.000000e+000  0.000000e+000  9.999999e-001
    outer loop
      vertex -1.690000e+002 -6.900000e+001  1.000000e+001
      vertex -1.592388e+002 -5.382684e+001  1.000000e+001
      vertex -1.600000e+002 -5.000000e+001  1.000000e+001
    endloop
  endfacet
  facet normal  0.000000e+000  -0.000000e+000  1.000000e+000
    outer loop
      vertex -1.690000e+002 -6.900000e+001  1.000000e+001
      vertex -1.600000e+002 -5.000000e+001  1.000000e+001
      vertex -1.592388e+002 -4.617316e+001  1.000000e+001
    endloop
  endfacet
  facet normal  0.000000e+000  -0.000000e+000  1.000000e+000
    outer loop
      vertex -1.690000e+002 -6.900000e+001  1.000000e+001
      vertex -1.592388e+002 -4.617316e+001  1.000000e+001
      vertex -1.459808e+002 -1.000000e+000  1.000000e+001
    endloop
  endfacet
  facet normal  0.000000e+000  0.000000e+000  1.000000e+000
    outer loop
      vertex -1.690000e+002 -6.900000e+001  1.000000e+001
      vertex -1.459808e+002 -1.000000e+000  1.000000e+001
      vertex -1.690000e+002 -1.000000e+000  1.000000e+001
    endloop
  endfacet
  facet normal  0.000000e+000  0.000000e+000  1.000000e+000
    outer loop
      vertex -6.000000e+001 -6.900000e+001  1.000000e+001
      vertex -6.000000e+001 -1.000000e+000  1.000000e+001
      vertex -7.000000e+001 -5.000000e+001  1.000000e+001
    endloop
  endfacet
  facet normal  0.000000e+000  0.000000e+000  1.000000e+000
    outer loop
      vertex -6.000000e+001 -6.900000e+001  1.000000e+001
      vertex -7.000000e+001 -5.000000e+001  1.000000e+001
      vertex -7.076121e+001 -5.382684e+001  1.000000e+001
    endloop
  endfacet
  facet normal  0.000000e+000  0.000000e+000  1.000000e+000
    outer loop
      vertex -6.000000e+001 -6.900000e+001  1.000000e+001
      vertex -7.076121e+001 -5.382684e+001  1.000000e+001
      vertex -7.292893e+001 -5.707107e+001  1.000000e+001
    endloop
  endfacet
  facet normal  0.000000e+000  0.000000e+000  1.000000e+000
    outer loop
      vertex -6.000000e+001 -6.900000e+001  1.000000e+001
      vertex -7.292893e+001 -5.707107e+001  1.000000e+001
      vertex -7.617316e+001 -5.923880e+001  1.000000e+001
    endloop
  endfacet
  facet normal  0.000000e+000  0.000000e+000  9.999999e-001
    outer loop
      vertex -6.000000e+001 -6.900000e+001  1.000000e+001
      vertex -7.617316e+001 -5.923880e+001  1.000000e+001
      vertex -8.000000e+001 -6.000000e+001  1.000000e+001
    endloop
  endfacet
  facet normal  0.000000e+000  0.000000e+000  1.000000e+000
    outer loop
      vertex -1.459808e+002 -1.000000e+000  1.000000e+001
      vertex -1.592388e+002 -4.617316e+001  1.000000e+001
      vertex -1.570711e+002 -4.292893e+001  1.000000e+001
    endloop
  endfacet
  facet normal  0.000000e+000  0.000000e+000  1.000000e+000
    outer loop
      vertex -1.459808e+002 -1.000000e+000  1.000000e+001
      vertex -1.570711e+002 -4.292893e+001  1.000000e+001
      vertex -1.538268e+002 -4.076120e+001  1.000000e+001
    endloop
  endfacet
  facet normal  0.000000e+000  0.000000e+000  1.000000e+000
    outer loop
      vertex -1.459808e+002 -1.000000e+000  1.000000e+001
      vertex -1.538268e+002 -4.076120e+001  1.000000e+001
      vertex -1.500000e+002 -4.000000e+001  1.000000e+001
    endloop
  endfacet
  facet normal  0.000000e+000  0.000000e+000  1.000000e+000
    outer loop
      vertex -1.459808e+002 -1.000000e+000  1.000000e+001
      vertex -1.500000e+002 -4.000000e+001  1.000000e+001
      vertex -1.450286e+002 -7.040534e+000  1.000000e+001
    endloop
  endfacet
  facet normal  0.000000e+000  0.000000e+000  1.000000e+000
    outer loop
      vertex -8.000000e+001 -4.000000e+001  1.000000e+001
      vertex -9.401924e+001 -1.000000e+000  1.000000e+001
      vertex -9.497140e+001 -7.040534e+000  1.000000e+001
    endloop
  endfacet
  facet normal  0.000000e+000  0.000000e+000  1.000000e+000
    outer loop
      vertex -8.000000e+001 -4.000000e+001  1.000000e+001
      vertex -9.497140e+001 -7.040534e+000  1.000000e+001
      vertex -9.730808e+001 -1.269160e+001  1.000000e+001
    endloop
  endfacet
  facet normal  0.000000e+000  0.000000e+000  1.000000e+000
    outer loop
      vertex -8.000000e+001 -4.000000e+001  1.000000e+001
      vertex -9.730808e+001 -1.269160e+001  1.000000e+001
      vertex -1.009000e+002 -1.764060e+001  1.000000e+001
    endloop
  endfacet
  facet normal  0.000000e+000  0.000000e+000  9.999999e-001
    outer loop
      vertex -8.000000e+001 -4.000000e+001  1.000000e+001
      vertex -1.009000e+002 -1.764060e+001  1.000000e+001
      vertex -1.055485e+002 -2.161377e+001  1.000000e+001
    endloop
  endfacet
  facet normal  0.000000e+000  0.000000e+000  1.000000e+000
    outer loop
      vertex -8.000000e+001 -4.000000e+001  1.000000e+001
      vertex -1.055485e+002 -2.161377e+001  1.000000e+001
      vertex -1.109965e+002 -2.439132e+001  1.000000e+001
    endloop
  endfacet
  facet normal  0.000000e+000  0.000000e+000  1.000000e+000
    outer loop
      vertex -8.000000e+001 -4.000000e+001  1.000000e+001
      vertex -1.109965e+002 -2.439132e+001  1.000000e+001
      vertex -1.169424e+002 -2.581959e+001  1.000000e+001
    endloop
  endfacet
  facet normal  0.000000e+000  0.000000e+000  1.000000e+000
    outer loop
      vertex -8.000000e+001 -4.000000e+001  1.000000e+001
      vertex -1.169424e+002 -2.581959e+001  1.000000e+001
      vertex -1.230576e+002 -2.581959e+001  1.000000e+001
    endloop
  endfacet
  facet normal  0.000000e+000  0.000000e+000  9.999999e-001
    outer loop
      vertex -8.000000e+001 -4.000000e+001  1.000000e+001
      vertex -1.230576e+002 -2.581959e+001  1.000000e+001
      vertex -1.290035e+002 -2.439132e+001  1.000000e+001
    endloop
  endfacet
  facet normal  0.000000e+000  0.000000e+000  1.000000e+000
    outer loop
      vertex -1.500000e+002 -4.000000e+001  1.000000e+001
      vertex -8.000000e+001 -4.000000e+001  1.000000e+001
      vertex -1.290035e+002 -2.439132e+001  1.000000e+001
    endloop
  endfacet
  facet normal  0.000000e+000  0.000000e+000  1.000000e+000
    outer loop
      vertex -1.500000e+002 -4.000000e+001  1.000000e+001
      vertex -1.290035e+002 -2.439132e+001  1.000000e+001
      vertex -1.344515e+002 -2.161377e+001  1.000000e+001
    endloop
  endfacet
  facet normal  0.000000e+000  0.000000e+000  1.000000e+000
    outer loop
      vertex -1.500000e+002 -4.000000e+001  1.000000e+001
      vertex -1.344515e+002 -2.161377e+001  1.000000e+001
      vertex -1.391000e+002 -1.764060e+001  1.000000e+001
    endloop
  endfacet
  facet normal  0.000000e+000  0.000000e+000  1.000000e+000
    outer loop
      vertex -1.500000e+002 -4.000000e+001  1.000000e+001
      vertex -1.391000e+002 -1.764060e+001  1.000000e+001
      vertex -1.426919e+002 -1.269160e+001  1.000000e+001
    endloop
  endfacet
  facet normal  0.000000e+000  0.000000e+000  1.000000e+000
    outer loop
      vertex -1.500000e+002 -4.000000e+001  1.000000e+001
      vertex -1.426919e+002 -1.269160e+001  1.000000e+001
      vertex -1.450286e+002 -7.040534e+000  1.000000e+001
    endloop
  endfacet
  facet normal  -0.000000e+000  0.000000e+000  1.000000e+000
    outer loop
      vertex -6.000000e+001 -1.000000e+000  1.000000e+001
      vertex -9.401924e+001 -1.000000e+000  1.000000e+001
      vertex -8.000000e+001 -4.000000e+001  1.000000e+001
    endloop
  endfacet
  facet normal  -0.000000e+000  0.000000e+000  1.000000e+000
    outer loop
      vertex -6.000000e+001 -1.000000e+000  1.000000e+001
      vertex -8.000000e+001 -4.000000e+001  1.000000e+001
      vertex -7.617316e+001 -4.076120e+001  1.000000e+001
    endloop
  endfacet
  facet normal  -0.000000e+000  0.000000e+000  1.000000e+000
    outer loop
      vertex -6.000000e+001 -1.000000e+000  1.000000e+001
      vertex -7.617316e+001 -4.076120e+001  1.000000e+001
      vertex -7.292893e+001 -4.292893e+001  1.000000e+001
    endloop
  endfacet
  facet normal  -0.000000e+000  0.000000e+000  1.000000e+000
    outer loop
      vertex -6.000000e+001 -1.000000e+000  1.000000e+001
      vertex -7.292893e+001 -4.292893e+001  1.000000e+001
      vertex -7.076121e+001 -4.617316e+001  1.000000e+001
    endloop
  endfacet
  facet normal  -0.000000e+000  0.000000e+000  1.000000e+000
    outer loop
      vertex -6.000000e+001 -1.000000e+000  1.000000e+001
      vertex -7.076121e+001 -4.617316e+001  1.000000e+001
      vertex -7.000000e+001 -5.000000e+001  1.000000e+001
    endloop
  endfacet
  facet normal  1.000000e+000  -0.000000e+000  0.000000e+000
    outer loop
      vertex  1.000000e+001 -3.000000e+001  1.000000e+001
      vertex  1.000000e+001 -5.000000e+001  1.000000e+001
      vertex  1.000000e+001 -3.000000e+001  0.000000e+000
    endloop
  endfacet
  facet normal  1.000000e+000  0.000000e+000  0.000000e+000
    outer loop
      vertex  1.000000e+001 -3.000000e+001  0.000000e+000
      vertex  1.000000e+001 -5.000000e+001  1.000000e+001
      vertex  1.000000e+001 -5.000000e+001  0.000000e+000
    endloop
  endfacet
  facet normal  5.555703e-001  8.314695e-001  0.000000e+000
    outer loop
      vertex  1.292893e+001 -5.707107e+001  0.000000e+000
      vertex  1.617317e+001 -5.923880e+001  1.000000e+001
      vertex  1.617317e+001 -5.923880e+001  0.000000e+000
    endloop
  endfacet
  facet normal  1.950901e-001  9.807853e-001  -0.000000e+000
    outer loop
      vertex  1.617317e+001 -5.923880e+001  0.000000e+000
      vertex  1.617317e+001 -5.923880e+001  1.000000e+001
      vertex  2.000000e+001 -6.000000e+001  1.000000e+001
    endloop
  endfacet
  facet normal  1.950901e-001  9.807853e-001  0.000000e+000
    outer loop
      vertex  1.617317e+001 -5.923880e+001  0.000000e+000
      vertex  2.000000e+001 -6.000000e+001  1.000000e+001
      vertex  2.000000e+001 -6.000000e+001  0.000000e+000
    endloop
  endfacet
  facet normal  5.555703e-001  8.314695e-001  -0.000000e+000
    outer loop
      vertex  1.617317e+001 -5.923880e+001  1.000000e+001
      vertex  1.292893e+001 -5.707107e+001  0.000000e+000
      vertex  1.292893e+001 -5.707107e+001  1.000000e+001
    endloop
  endfacet
  facet normal  8.314695e-001  5.555704e-001  0.000000e+000
    outer loop
      vertex  1.292893e+001 -5.707107e+001  1.000000e+001
      vertex  1.292893e+001 -5.707107e+001  0.000000e+000
      vertex  1.076120e+001 -5.382684e+001  0.000000e+000
    endloop
  endfacet
  facet normal  8.314695e-001  5.555704e-001  -0.000000e+000
    outer loop
      vertex  1.292893e+001 -5.707107e+001  1.000000e+001
      vertex  1.076120e+001 -5.382684e+001  0.000000e+000
      vertex  1.076120e+001 -5.382684e+001  1.000000e+001
    endloop
  endfacet
  facet normal  9.807853e-001  1.950903e-001  0.000000e+000
    outer loop
      vertex  1.076120e+001 -5.382684e+001  1.000000e+001
      vertex  1.076120e+001 -5.382684e+001  0.000000e+000
      vertex  1.000000e+001 -5.000000e+001  0.000000e+000
    endloop
  endfacet
  facet normal  9.807853e-001  1.950903e-001  -0.000000e+000
    outer loop
      vertex  1.076120e+001 -5.382684e+001  1.000000e+001
      vertex  1.000000e+001 -5.000000e+001  0.000000e+000
      vertex  1.000000e+001 -5.000000e+001  1.000000e+001
    endloop
  endfacet
  facet normal -8.314694e-001  5.555705e-001  0.000000e+000
    outer loop
      vertex  2.707107e+001 -5.707107e+001  0.000000e+000
      vertex  2.923880e+001 -5.382684e+001  1.000000e+001
      vertex  2.923880e+001 -5.382684e+001  0.000000e+000
    endloop
  endfacet
  facet normal -9.807854e-001  1.950900e-001  0.000000e+000
    outer loop
      vertex  2.923880e+001 -5.382684e+001  0.000000e+000
      vertex  2.923880e+001 -5.382684e+001  1.000000e+001
      vertex  3.000000e+001 -5.000000e+001  1.000000e+001
    endloop
  endfacet
  facet normal -9.807854e-001  1.950900e-001  0.000000e+000
    outer loop
      vertex  2.923880e+001 -5.382684e+001  0.000000e+000
      vertex  3.000000e+001 -5.000000e+001  1.000000e+001
      vertex  3.000000e+001 -5.000000e+001  0.000000e+000
    endloop
  endfacet
  facet normal -8.314694e-001  5.555705e-001  0.000000e+000
    outer loop
      vertex  2.923880e+001 -5.382684e+001  1.000000e+001
      vertex  2.707107e+001 -5.707107e+001  0.000000e+000
      vertex  2.707107e+001 -5.707107e+001  1.000000e+001
    endloop
  endfacet
  facet normal -5.555703e-001  8.314695e-001  0.000000e+000
    outer loop
      vertex  2.707107e+001 -5.707107e+001  1.000000e+001
      vertex  2.707107e+001 -5.707107e+001  0.000000e+000
      vertex  2.382683e+001 -5.923880e+001  0.000000e+000
    endloop
  endfacet
  facet normal -5.555703e-001  8.314695e-001  0.000000e+000
    outer loop
      vertex  2.707107e+001 -5.707107e+001  1.000000e+001
      vertex  2.382683e+001 -5.923880e+001  0.000000e+000
      vertex  2.382683e+001 -5.923880e+001  1.000000e+001
    endloop
  endfacet
  facet normal -1.950901e-001  9.807853e-001  0.000000e+000
    outer loop
      vertex  2.382683e+001 -5.923880e+001  1.000000e+001
      vertex  2.382683e+001 -5.923880e+001  0.000000e+000
      vertex  2.000000e+001 -6.000000e+001  0.000000e+000
    endloop
  endfacet
  facet normal -1.950901e-001  9.807853e-001  0.000000e+000
    outer loop
      vertex  2.382683e+001 -5.923880e+001  1.000000e+001
      vertex  2.000000e+001 -6.000000e+001  0.000000e+000
      vertex  2.000000e+001 -6.000000e+001  1.000000e+001
    endloop
  endfacet
  facet normal -1.000000e+000  -0.000000e+000  0.000000e+000
    outer loop
      vertex  3.000000e+001 -5.000000e+001  1.000000e+001
      vertex  3.000000e+001 -2.000000e+001  1.000000e+001
      vertex  3.000000e+001 -5.000000e+001  0.000000e+000
    endloop
  endfacet
  facet normal -1.000000e+000  0.000000e+000  0.000000e+000
    outer loop
      vertex  3.000000e+001 -5.000000e+001  0.000000e+000
      vertex  3.000000e+001 -2.000000e+001  1.000000e+001
      vertex  3.000000e+001 -2.000000e+001  0.000000e+000
    endloop
  endfacet
  facet normal -5.555701e-001 -8.314696e-001  -0.000000e+000
    outer loop
      vertex  2.707107e+001 -1.292893e+001  0.000000e+000
      vertex  2.382683e+001 -1.076120e+001  1.000000e+001
      vertex  2.382683e+001 -1.076120e+001  0.000000e+000
    endloop
  endfacet
  facet normal -1.950904e-001 -9.807853e-001  0.000000e+000
    outer loop
      vertex  2.382683e+001 -1.076120e+001  0.000000e+000
      vertex  2.382683e+001 -1.076120e+001  1.000000e+001
      vertex  2.000000e+001 -1.000000e+001  1.000000e+001
    endloop
  endfacet
  facet normal -1.950904e-001 -9.807853e-001  -0.000000e+000
    outer loop
      vertex  2.382683e+001 -1.076120e+001  0.000000e+000
      vertex  2.000000e+001 -1.000000e+001  1.000000e+001
      vertex  2.000000e+001 -1.000000e+001  0.000000e+000
    endloop
  endfacet
  facet normal -5.555701e-001 -8.314696e-001  0.000000e+000
    outer loop
      vertex  2.382683e+001 -1.076120e+001  1.000000e+001
      vertex  2.707107e+001 -1.292893e+001  0.000000e+000
      vertex  2.707107e+001 -1.292893e+001  1.000000e+001
    endloop
  endfacet
  facet normal -8.314695e-001 -5.555703e-001  -0.000000e+000
    outer loop
      vertex  2.707107e+001 -1.292893e+001  1.000000e+001
      vertex  2.707107e+001 -1.292893e+001  0.000000e+000
      vertex  2.923880e+001 -1.617317e+001  0.000000e+000
    endloop
  endfacet
  facet normal -8.314695e-001 -5.555703e-001  0.000000e+000
    outer loop
      vertex  2.707107e+001 -1.292893e+001  1.000000e+001
      vertex  2.923880e+001 -1.617317e+001  0.000000e+000
      vertex  2.923880e+001 -1.617317e+001  1.000000e+001
    endloop
  endfacet
  facet normal -9.807853e-001 -1.950901e-001  -0.000000e+000
    outer loop
      vertex  2.923880e+001 -1.617317e+001  1.000000e+001
      vertex  2.923880e+001 -1.617317e+001  0.000000e+000
      vertex  3.000000e+001 -2.000000e+001  0.000000e+000
    endloop
  endfacet
  facet normal -9.807853e-001 -1.950901e-001  0.000000e+000
    outer loop
      vertex  2.923880e+001 -1.617317e+001  1.000000e+001
      vertex  3.000000e+001 -2.000000e+001  0.000000e+000
      vertex  3.000000e+001 -2.000000e+001  1.000000e+001
    endloop
  endfacet
  facet normal  8.314696e-001 -5.555701e-001  0.000000e+000
    outer loop
      vertex  1.292893e+001 -1.292893e+001  0.000000e+000
      vertex  1.076120e+001 -1.617317e+001  1.000000e+001
      vertex  1.076120e+001 -1.617317e+001  0.000000e+000
    endloop
  endfacet
  facet normal  9.807853e-001 -1.950904e-001  0.000000e+000
    outer loop
      vertex  1.076120e+001 -1.617317e+001  0.000000e+000
      vertex  1.076120e+001 -1.617317e+001  1.000000e+001
      vertex  1.000000e+001 -2.000000e+001  1.000000e+001
    endloop
  endfacet
  facet normal  9.807853e-001 -1.950904e-001  0.000000e+000
    outer loop
      vertex  1.076120e+001 -1.617317e+001  0.000000e+000
      vertex  1.000000e+001 -2.000000e+001  1.000000e+001
      vertex  1.000000e+001 -2.000000e+001  0.000000e+000
    endloop
  endfacet
  facet normal  8.314696e-001 -5.555701e-001  0.000000e+000
    outer loop
      vertex  1.076120e+001 -1.617317e+001  1.000000e+001
      vertex  1.292893e+001 -1.292893e+001  0.000000e+000
      vertex  1.292893e+001 -1.292893e+001  1.000000e+001
    endloop
  endfacet
  facet normal  5.555701e-001 -8.314696e-001  0.000000e+000
    outer loop
      vertex  1.292893e+001 -1.292893e+001  1.000000e+001
      vertex  1.292893e+001 -1.292893e+001  0.000000e+000
      vertex  1.617317e+001 -1.076120e+001  0.000000e+000
    endloop
  endfacet
  facet normal  5.555701e-001 -8.314696e-001  0.000000e+000
    outer loop
      vertex  1.292893e+001 -1.292893e+001  1.000000e+001
      vertex  1.617317e+001 -1.076120e+001  0.000000e+000
      vertex  1.617317e+001 -1.076120e+001  1.000000e+001
    endloop
  endfacet
  facet normal  1.950904e-001 -9.807853e-001  0.000000e+000
    outer loop
      vertex  1.617317e+001 -1.076120e+001  1.000000e+001
      vertex  1.617317e+001 -1.076120e+001  0.000000e+000
      vertex  2.000000e+001 -1.000000e+001  0.000000e+000
    endloop
  endfacet
  facet normal  1.950904e-001 -9.807853e-001  0.000000e+000
    outer loop
      vertex  1.617317e+001 -1.076120e+001  1.000000e+001
      vertex  2.000000e+001 -1.000000e+001  0.000000e+000
      vertex  2.000000e+001 -1.000000e+001  1.000000e+001
    endloop
  endfacet
  facet normal  1.000000e+000  -0.000000e+000  0.000000e+000
    outer loop
      vertex  1.000000e+001 -2.000000e+001  1.000000e+001
      vertex  1.000000e+001 -3.000000e+001  1.000000e+001
      vertex  1.000000e+001 -2.000000e+001  0.000000e+000
    endloop
  endfacet
  facet normal  1.000000e+000  0.000000e+000  0.000000e+000
    outer loop
      vertex  1.000000e+001 -2.000000e+001  0.000000e+000
      vertex  1.000000e+001 -3.000000e+001  1.000000e+001
      vertex  1.000000e+001 -3.000000e+001  0.000000e+000
    endloop
  endfacet
  facet normal  9.807854e-001  1.950891e-001  0.000000e+000
    outer loop
      vertex -1.600000e+002 -5.000000e+001  0.000000e+000
      vertex -1.592388e+002 -5.382684e+001  1.000000e+001
      vertex -1.592388e+002 -5.382684e+001  0.000000e+000
    endloop
  endfacet
  facet normal  8.314699e-001  5.555699e-001  -0.000000e+000
    outer loop
      vertex -1.592388e+002 -5.382684e+001  0.000000e+000
      vertex -1.592388e+002 -5.382684e+001  1.000000e+001
      vertex -1.570711e+002 -5.707107e+001  1.000000e+001
    endloop
  endfacet
  facet normal  8.314699e-001  5.555699e-001  0.000000e+000
    outer loop
      vertex -1.592388e+002 -5.382684e+001  0.000000e+000
      vertex -1.570711e+002 -5.707107e+001  1.000000e+001
      vertex -1.570711e+002 -5.707107e+001  0.000000e+000
    endloop
  endfacet
  facet normal  5.555688e-001  8.314706e-001  -0.000000e+000
    outer loop
      vertex -1.570711e+002 -5.707107e+001  0.000000e+000
      vertex -1.570711e+002 -5.707107e+001  1.000000e+001
      vertex -1.538268e+002 -5.923880e+001  1.000000e+001
    endloop
  endfacet
  facet normal  5.555688e-001  8.314706e-001  0.000000e+000
    outer loop
      vertex -1.570711e+002 -5.707107e+001  0.000000e+000
      vertex -1.538268e+002 -5.923880e+001  1.000000e+001
      vertex -1.538268e+002 -5.923880e+001  0.000000e+000
    endloop
  endfacet
  facet normal  1.950904e-001  9.807853e-001  -0.000000e+000
    outer loop
      vertex -1.538268e+002 -5.923880e+001  0.000000e+000
      vertex -1.538268e+002 -5.923880e+001  1.000000e+001
      vertex -1.500000e+002 -6.000000e+001  1.000000e+001
    endloop
  endfacet
  facet normal  1.950904e-001  9.807853e-001  0.000000e+000
    outer loop
      vertex -1.538268e+002 -5.923880e+001  0.000000e+000
      vertex -1.500000e+002 -6.000000e+001  1.000000e+001
      vertex -1.500000e+002 -6.000000e+001  0.000000e+000
    endloop
  endfacet
  facet normal  9.807854e-001  1.950891e-001  -0.000000e+000
    outer loop
      vertex -1.592388e+002 -5.382684e+001  1.000000e+001
      vertex -1.600000e+002 -5.000000e+001  0.000000e+000
      vertex -1.600000e+002 -5.000000e+001  1.000000e+001
    endloop
  endfacet
  facet normal  9.807854e-001 -1.950891e-001  0.000000e+000
    outer loop
      vertex -1.600000e+002 -5.000000e+001  1.000000e+001
      vertex -1.600000e+002 -5.000000e+001  0.000000e+000
      vertex -1.592388e+002 -4.617316e+001  0.000000e+000
    endloop
  endfacet
  facet normal  9.807854e-001 -1.950891e-001  0.000000e+000
    outer loop
      vertex -1.600000e+002 -5.000000e+001  1.000000e+001
      vertex -1.592388e+002 -4.617316e+001  0.000000e+000
      vertex -1.592388e+002 -4.617316e+001  1.000000e+001
    endloop
  endfacet
  facet normal  8.314699e-001 -5.555699e-001  0.000000e+000
    outer loop
      vertex -1.592388e+002 -4.617316e+001  1.000000e+001
      vertex -1.592388e+002 -4.617316e+001  0.000000e+000
      vertex -1.570711e+002 -4.292893e+001  0.000000e+000
    endloop
  endfacet
  facet normal  8.314699e-001 -5.555699e-001  0.000000e+000
    outer loop
      vertex -1.592388e+002 -4.617316e+001  1.000000e+001
      vertex -1.570711e+002 -4.292893e+001  0.000000e+000
      vertex -1.570711e+002 -4.292893e+001  1.000000e+001
    endloop
  endfacet
  facet normal  5.555688e-001 -8.314706e-001  0.000000e+000
    outer loop
      vertex -1.570711e+002 -4.292893e+001  1.000000e+001
      vertex -1.570711e+002 -4.292893e+001  0.000000e+000
      vertex -1.538268e+002 -4.076120e+001  0.000000e+000
    endloop
  endfacet
  facet normal  5.555688e-001 -8.314706e-001  0.000000e+000
    outer loop
      vertex -1.570711e+002 -4.292893e+001  1.000000e+001
      vertex -1.538268e+002 -4.076120e+001  0.000000e+000
      vertex -1.538268e+002 -4.076120e+001  1.000000e+001
    endloop
  endfacet
  facet normal  1.950904e-001 -9.807853e-001  0.000000e+000
    outer loop
      vertex -1.538268e+002 -4.076120e+001  1.000000e+001
      vertex -1.538268e+002 -4.076120e+001  0.000000e+000
      vertex -1.500000e+002 -4.000000e+001  0.000000e+000
    endloop
  endfacet
  facet normal  1.950904e-001 -9.807853e-001  0.000000e+000
    outer loop
      vertex -1.538268e+002 -4.076120e+001  1.000000e+001
      vertex -1.500000e+002 -4.000000e+001  0.000000e+000
      vertex -1.500000e+002 -4.000000e+001  1.000000e+001
    endloop
  endfacet
  facet normal  0.000000e+000  1.000000e+000  -0.000000e+000
    outer loop
      vertex -8.000000e+001 -6.000000e+001  1.000000e+001
      vertex -8.000000e+001 -6.000000e+001  0.000000e+000
      vertex -1.500000e+002 -6.000000e+001  1.000000e+001
    endloop
  endfacet
  facet normal  0.000000e+000  1.000000e+000  0.000000e+000
    outer loop
      vertex -1.500000e+002 -6.000000e+001  1.000000e+001
      vertex -8.000000e+001 -6.000000e+001  0.000000e+000
      vertex -1.500000e+002 -6.000000e+001  0.000000e+000
    endloop
  endfacet
  facet normal -9.807851e-001 -1.950910e-001  -0.000000e+000
    outer loop
      vertex -7.000000e+001 -5.000000e+001  0.000000e+000
      vertex -7.076121e+001 -4.617316e+001  1.000000e+001
      vertex -7.076121e+001 -4.617316e+001  0.000000e+000
    endloop
  endfacet
  facet normal -8.314699e-001 -5.555699e-001  0.000000e+000
    outer loop
      vertex -7.076121e+001 -4.617316e+001  0.000000e+000
      vertex -7.076121e+001 -4.617316e+001  1.000000e+001
      vertex -7.292893e+001 -4.292893e+001  1.000000e+001
    endloop
  endfacet
  facet normal -8.314699e-001 -5.555699e-001  -0.000000e+000
    outer loop
      vertex -7.076121e+001 -4.617316e+001  0.000000e+000
      vertex -7.292893e+001 -4.292893e+001  1.000000e+001
      vertex -7.292893e+001 -4.292893e+001  0.000000e+000
    endloop
  endfacet
  facet normal -5.555705e-001 -8.314694e-001  0.000000e+000
    outer loop
      vertex -7.292893e+001 -4.292893e+001  0.000000e+000
      vertex -7.292893e+001 -4.292893e+001  1.000000e+001
      vertex -7.617316e+001 -4.076120e+001  1.000000e+001
    endloop
  endfacet
  facet normal -5.555705e-001 -8.314694e-001  -0.000000e+000
    outer loop
      vertex -7.292893e+001 -4.292893e+001  0.000000e+000
      vertex -7.617316e+001 -4.076120e+001  1.000000e+001
      vertex -7.617316e+001 -4.076120e+001  0.000000e+000
    endloop
  endfacet
  facet normal -1.950900e-001 -9.807854e-001  0.000000e+000
    outer loop
      vertex -7.617316e+001 -4.076120e+001  0.000000e+000
      vertex -7.617316e+001 -4.076120e+001  1.000000e+001
      vertex -8.000000e+001 -4.000000e+001  1.000000e+001
    endloop
  endfacet
  facet normal -1.950900e-001 -9.807854e-001  -0.000000e+000
    outer loop
      vertex -7.617316e+001 -4.076120e+001  0.000000e+000
      vertex -8.000000e+001 -4.000000e+001  1.000000e+001
      vertex -8.000000e+001 -4.000000e+001  0.000000e+000
    endloop
  endfacet
  facet normal -9.807851e-001 -1.950910e-001  0.000000e+000
    outer loop
      vertex -7.076121e+001 -4.617316e+001  1.000000e+001
      vertex -7.000000e+001 -5.000000e+001  0.000000e+000
      vertex -7.000000e+001 -5.000000e+001  1.000000e+001
    endloop
  endfacet
  facet normal -9.807851e-001  1.950910e-001  0.000000e+000
    outer loop
      vertex -7.000000e+001 -5.000000e+001  1.000000e+001
      vertex -7.000000e+001 -5.000000e+001  0.000000e+000
      vertex -7.076121e+001 -5.382684e+001  0.000000e+000
    endloop
  endfacet
  facet normal -9.807851e-001  1.950910e-001  0.000000e+000
    outer loop
      vertex -7.000000e+001 -5.000000e+001  1.000000e+001
      vertex -7.076121e+001 -5.382684e+001  0.000000e+000
      vertex -7.076121e+001 -5.382684e+001  1.000000e+001
    endloop
  endfacet
  facet normal -8.314699e-001  5.555699e-001  0.000000e+000
    outer loop
      vertex -7.076121e+001 -5.382684e+001  1.000000e+001
      vertex -7.076121e+001 -5.382684e+001  0.000000e+000
      vertex -7.292893e+001 -5.707107e+001  0.000000e+000
    endloop
  endfacet
  facet normal -8.314699e-001  5.555699e-001  0.000000e+000
    outer loop
      vertex -7.076121e+001 -5.382684e+001  1.000000e+001
      vertex -7.292893e+001 -5.707107e+001  0.000000e+000
      vertex -7.292893e+001 -5.707107e+001  1.000000e+001
    endloop
  endfacet
  facet normal -5.555705e-001  8.314694e-001  0.000000e+000
    outer loop
      vertex -7.292893e+001 -5.707107e+001  1.000000e+001
      vertex -7.292893e+001 -5.707107e+001  0.000000e+000
      vertex -7.617316e+001 -5.923880e+001  0.000000e+000
    endloop
  endfacet
  facet normal -5.555705e-001  8.314694e-001  0.000000e+000
    outer loop
      vertex -7.292893e+001 -5.707107e+001  1.000000e+001
      vertex -7.617316e+001 -5.923880e+001  0.000000e+000
      vertex -7.617316e+001 -5.923880e+001  1.000000e+001
    endloop
  endfacet
  facet normal -1.950900e-001  9.807854e-001  0.000000e+000
    outer loop
      vertex -7.617316e+001 -5.923880e+001  1.000000e+001
      vertex -7.617316e+001 -5.923880e+001  0.000000e+000
      vertex -8.000000e+001 -6.000000e+001  0.000000e+000
    endloop
  endfacet
  facet normal -1.950900e-001  9.807854e-001  0.000000e+000
    outer loop
      vertex -7.617316e+001 -5.923880e+001  1.000000e+001
      vertex -8.000000e+001 -6.000000e+001  0.000000e+000
      vertex -8.000000e+001 -6.000000e+001  1.000000e+001
    endloop
  endfacet
  facet normal  0.000000e+000 -1.000000e+000  0.000000e+000
    outer loop
      vertex -1.500000e+002 -4.000000e+001  1.000000e+001
      vertex -1.500000e+002 -4.000000e+001  0.000000e+000
      vertex -8.000000e+001 -4.000000e+001  1.000000e+001
    endloop
  endfacet
  facet normal  0.000000e+000 -1.000000e+000  -0.000000e+000
    outer loop
      vertex -8.000000e+001 -4.000000e+001  1.000000e+001
      vertex -1.500000e+002 -4.000000e+001  0.000000e+000
      vertex -8.000000e+001 -4.000000e+001  0.000000e+000
    endloop
  endfacet
  facet normal  6.434805e-019  7.071068e-001  7.071068e-001
    outer loop
      vertex  5.000000e+001 -5.551115e-017  9.000000e+000
      vertex -1.100000e+001  0.000000e+000  9.000000e+000
      vertex -1.000000e+001 -1.000000e+000  1.000000e+001
    endloop
  endfacet
  facet normal  -0.000000e+000  7.071068e-001  7.071068e-001
    outer loop
      vertex  5.000000e+001 -5.551115e-017  9.000000e+000
      vertex -1.000000e+001 -1.000000e+000  1.000000e+001
      vertex  4.900000e+001 -1.000000e+000  1.000000e+001
    endloop
  endfacet
  facet normal -1.133775e-006  7.071073e-001  7.071062e-001
    outer loop
      vertex  5.000000e+001 -5.551115e-017  9.000000e+000
      vertex  4.900000e+001 -1.000000e+000  1.000000e+001
      vertex  4.930923e+001 -9.509864e-001  9.950987e+000
    endloop
  endfacet
  facet normal  1.775705e-006  7.071063e-001  7.071073e-001
    outer loop
      vertex  5.000000e+001 -5.551115e-017  9.000000e+000
      vertex  4.930923e+001 -9.509864e-001  9.950987e+000
      vertex  4.970213e+001 -7.120459e-001  9.712046e+000
    endloop
  endfacet
  facet normal -4.732793e-006  7.071077e-001  7.071059e-001
    outer loop
      vertex  5.000000e+001 -5.551115e-017  9.000000e+000
      vertex  4.970213e+001 -7.120459e-001  9.712046e+000
      vertex  4.997983e+001 -1.998478e-001  9.199848e+000
    endloop
  endfacet
  facet normal  0.000000e+000  7.071068e-001  7.071068e-001
    outer loop
      vertex -1.690000e+002 -1.000000e+000  1.000000e+001
      vertex -1.459808e+002 -1.000000e+000  1.000000e+001
      vertex -1.450000e+002  3.061516e-015  9.000000e+000
    endloop
  endfacet
  facet normal -8.659275e-017  7.071068e-001  7.071068e-001
    outer loop
      vertex -1.690000e+002 -1.000000e+000  1.000000e+001
      vertex -1.450000e+002  3.061516e-015  9.000000e+000
      vertex -1.700000e+002  0.000000e+000  9.000000e+000
    endloop
  endfacet
  facet normal  1.290143e-006  7.071074e-001  7.071061e-001
    outer loop
      vertex -1.690000e+002 -1.000000e+000  1.000000e+001
      vertex -1.700000e+002  0.000000e+000  9.000000e+000
      vertex -1.699798e+002 -1.998478e-001  9.199848e+000
    endloop
  endfacet
  facet normal -7.427161e-007  7.071061e-001  7.071074e-001
    outer loop
      vertex -1.690000e+002 -1.000000e+000  1.000000e+001
      vertex -1.699798e+002 -1.998478e-001  9.199848e+000
      vertex -1.697021e+002 -7.120459e-001  9.712046e+000
    endloop
  endfacet
  facet normal  1.706297e-006  7.071092e-001  7.071044e-001
    outer loop
      vertex -1.690000e+002 -1.000000e+000  1.000000e+001
      vertex -1.697021e+002 -7.120459e-001  9.712046e+000
      vertex -1.693092e+002 -9.509864e-001  9.950987e+000
    endloop
  endfacet
  facet normal -1.000000e+000  -0.000000e+000  0.000000e+000
    outer loop
      vertex -1.700000e+002 -7.000000e+001  9.000000e+000
      vertex -1.700000e+002  0.000000e+000  9.000000e+000
      vertex -1.700000e+002 -7.000000e+001  0.000000e+000
    endloop
  endfacet
  facet normal -1.000000e+000  0.000000e+000  0.000000e+000
    outer loop
      vertex -1.700000e+002 -7.000000e+001  0.000000e+000
      vertex -1.700000e+002  0.000000e+000  9.000000e+000
      vertex -1.700000e+002  0.000000e+000  0.000000e+000
    endloop
  endfacet
  facet normal -1.000000e+000  -0.000000e+000  0.000000e+000
    outer loop
      vertex -6.000000e+001 -6.900000e+001  8.000000e+001
      vertex -6.000000e+001 -1.000000e+000  8.000000e+001
      vertex -6.000000e+001 -6.900000e+001  1.000000e+001
    endloop
  endfacet
  facet normal -1.000000e+000  0.000000e+000  0.000000e+000
    outer loop
      vertex -6.000000e+001 -6.900000e+001  1.000000e+001
      vertex -6.000000e+001 -1.000000e+000  8.000000e+001
      vertex -6.000000e+001 -1.000000e+000  1.000000e+001
    endloop
  endfacet
  facet normal  0.000000e+000  0.000000e+000  9.999999e-001
    outer loop
      vertex -1.000000e+001 -6.900000e+001  8.000000e+001
      vertex -1.000000e+001 -1.000000e+000  8.000000e+001
      vertex -6.000000e+001 -6.900000e+001  8.000000e+001
    endloop
  endfacet
  facet normal  0.000000e+000  0.000000e+000  9.999999e-001
    outer loop
      vertex -6.000000e+001 -6.900000e+001  8.000000e+001
      vertex -1.000000e+001 -1.000000e+000  8.000000e+001
      vertex -6.000000e+001 -1.000000e+000  8.000000e+001
    endloop
  endfacet
  facet normal  1.000000e+000  0.000000e+000  0.000000e+000
    outer loop
      vertex -1.000000e+001 -6.900000e+001  1.000000e+001
      vertex -1.000000e+001 -1.000000e+000  1.000000e+001
      vertex -1.000000e+001 -6.900000e+001  8.000000e+001
    endloop
  endfacet
  facet normal  1.000000e+000  -0.000000e+000  0.000000e+000
    outer loop
      vertex -1.000000e+001 -6.900000e+001  8.000000e+001
      vertex -1.000000e+001 -1.000000e+000  1.000000e+001
      vertex -1.000000e+001 -1.000000e+000  8.000000e+001
    endloop
  endfacet
  facet normal  1.000000e+000  0.000000e+000  0.000000e+000
    outer loop
      vertex  5.000000e+001 -7.000000e+001  0.000000e+000
      vertex  5.000000e+001  0.000000e+000  0.000000e+000
      vertex  5.000000e+001 -7.000000e+001  9.000000e+000
    endloop
  endfacet
  facet normal  1.000000e+000  -0.000000e+000  0.000000e+000
    outer loop
      vertex  5.000000e+001 -7.000000e+001  9.000000e+000
      vertex  5.000000e+001  0.000000e+000  0.000000e+000
      vertex  5.000000e+001 -5.551115e-017  9.000000e+000
    endloop
  endfacet
  facet normal  0.000000e+000 -1.000000e+000  0.000000e+000
    outer loop
      vertex -1.100000e+001 -7.000000e+001  7.900000e+001
      vertex -2.000000e+001 -7.000000e+001  0.000000e+000
      vertex -1.100000e+001 -7.000000e+001  9.000000e+000
    endloop
  endfacet
  facet normal  0.000000e+000 -1.000000e+000  -0.000000e+000
    outer loop
      vertex -1.100000e+001 -7.000000e+001  9.000000e+000
      vertex -2.000000e+001 -7.000000e+001  0.000000e+000
      vertex  5.000000e+001 -7.000000e+001  0.000000e+000
    endloop
  endfacet
  facet normal  0.000000e+000 -1.000000e+000  0.000000e+000
    outer loop
      vertex -1.100000e+001 -7.000000e+001  9.000000e+000
      vertex  5.000000e+001 -7.000000e+001  0.000000e+000
      vertex  5.000000e+001 -7.000000e+001  9.000000e+000
    endloop
  endfacet
  facet normal  0.000000e+000 -1.000000e+000  0.000000e+000
    outer loop
      vertex -2.000000e+001 -7.000000e+001  0.000000e+000
      vertex -1.100000e+001 -7.000000e+001  7.900000e+001
      vertex -2.000000e+001 -7.000000e+001  7.000000e+001
    endloop
  endfacet
  facet normal  0.000000e+000 -1.000000e+000  0.000000e+000
    outer loop
      vertex -2.000000e+001 -7.000000e+001  7.000000e+001
      vertex -1.100000e+001 -7.000000e+001  7.900000e+001
      vertex -5.900000e+001 -7.000000e+001  7.900000e+001
    endloop
  endfacet
  facet normal  0.000000e+000 -1.000000e+000  0.000000e+000
    outer loop
      vertex -2.000000e+001 -7.000000e+001  7.000000e+001
      vertex -5.900000e+001 -7.000000e+001  7.900000e+001
      vertex -5.000000e+001 -7.000000e+001  7.000000e+001
    endloop
  endfacet
  facet normal  -0.000000e+000 -1.000000e+000  0.000000e+000
    outer loop
      vertex -5.000000e+001 -7.000000e+001  7.000000e+001
      vertex -5.900000e+001 -7.000000e+001  7.900000e+001
      vertex -5.900000e+001 -7.000000e+001  9.000000e+000
    endloop
  endfacet
  facet normal  0.000000e+000 -1.000000e+000  0.000000e+000
    outer loop
      vertex -5.000000e+001 -7.000000e+001  7.000000e+001
      vertex -5.900000e+001 -7.000000e+001  9.000000e+000
      vertex -5.000000e+001 -7.000000e+001  0.000000e+000
    endloop
  endfacet
  facet normal  0.000000e+000 -1.000000e+000  0.000000e+000
    outer loop
      vertex -5.000000e+001 -7.000000e+001  0.000000e+000
      vertex -5.900000e+001 -7.000000e+001  9.000000e+000
      vertex -1.700000e+002 -7.000000e+001  9.000000e+000
    endloop
  endfacet
  facet normal  0.000000e+000 -1.000000e+000  0.000000e+000
    outer loop
      vertex -5.000000e+001 -7.000000e+001  0.000000e+000
      vertex -1.700000e+002 -7.000000e+001  9.000000e+000
      vertex -1.700000e+002 -7.000000e+001  0.000000e+000
    endloop
  endfacet
  facet normal  9.100188e-019  1.000000e+000  6.167906e-018
    outer loop
      vertex  5.000000e+001 -5.551115e-017  9.000000e+000
      vertex  5.000000e+001  0.000000e+000  0.000000e+000
      vertex -1.100000e+001  0.000000e+000  9.000000e+000
    endloop
  endfacet
  facet normal  0.000000e+000  1.000000e+000  0.000000e+000
    outer loop
      vertex -1.100000e+001  0.000000e+000  9.000000e+000
      vertex  5.000000e+001  0.000000e+000  0.000000e+000
      vertex -2.000000e+001  0.000000e+000  0.000000e+000
    endloop
  endfacet
  facet normal  0.000000e+000  1.000000e+000  0.000000e+000
    outer loop
      vertex -1.100000e+001  0.000000e+000  9.000000e+000
      vertex -2.000000e+001  0.000000e+000  0.000000e+000
      vertex -1.100000e+001  0.000000e+000  7.900000e+001
    endloop
  endfacet
  facet normal  0.000000e+000  1.000000e+000  0.000000e+000
    outer loop
      vertex -1.100000e+001  0.000000e+000  7.900000e+001
      vertex -2.000000e+001  0.000000e+000  0.000000e+000
      vertex -2.000000e+001  0.000000e+000  7.000000e+001
    endloop
  endfacet
  facet normal  0.000000e+000  1.000000e+000  -0.000000e+000
    outer loop
      vertex -1.100000e+001  0.000000e+000  7.900000e+001
      vertex -2.000000e+001  0.000000e+000  7.000000e+001
      vertex -5.900000e+001  0.000000e+000  7.900000e+001
    endloop
  endfacet
  facet normal  0.000000e+000  1.000000e+000  0.000000e+000
    outer loop
      vertex -5.900000e+001  0.000000e+000  7.900000e+001
      vertex -2.000000e+001  0.000000e+000  7.000000e+001
      vertex -5.000000e+001  0.000000e+000  7.000000e+001
    endloop
  endfacet
  facet normal  0.000000e+000  1.000000e+000  0.000000e+000
    outer loop
      vertex -5.900000e+001  0.000000e+000  7.900000e+001
      vertex -5.000000e+001  0.000000e+000  7.000000e+001
      vertex -5.900000e+001  0.000000e+000  9.000000e+000
    endloop
  endfacet
  facet normal  -0.000000e+000  1.000000e+000  0.000000e+000
    outer loop
      vertex -5.900000e+001  0.000000e+000  9.000000e+000
      vertex -5.000000e+001  0.000000e+000  7.000000e+001
      vertex -5.000000e+001  0.000000e+000  0.000000e+000
    endloop
  endfacet
  facet normal  0.000000e+000  1.000000e+000  0.000000e+000
    outer loop
      vertex -5.900000e+001  0.000000e+000  9.000000e+000
      vertex -5.000000e+001  0.000000e+000  0.000000e+000
      vertex -6.000000e+001  0.000000e+000  9.000000e+000
    endloop
  endfacet
  facet normal  0.000000e+000  1.000000e+000  0.000000e+000
    outer loop
      vertex -6.000000e+001  0.000000e+000  9.000000e+000
      vertex -5.000000e+001  0.000000e+000  0.000000e+000
      vertex -6.000000e+001  0.000000e+000  0.000000e+000
    endloop
  endfacet
  facet normal  0.000000e+000  1.000000e+000 -3.401684e-016
    outer loop
      vertex -1.450000e+002  0.000000e+000  0.000000e+000
      vertex -1.700000e+002  0.000000e+000  0.000000e+000
      vertex -1.450000e+002  3.061516e-015  9.000000e+000
    endloop
  endfacet
  facet normal -1.224606e-016  1.000000e+000  0.000000e+000
    outer loop
      vertex -1.450000e+002  3.061516e-015  9.000000e+000
      vertex -1.700000e+002  0.000000e+000  0.000000e+000
      vertex -1.700000e+002  0.000000e+000  9.000000e+000
    endloop
  endfacet
  facet normal -1.000000e+000  -0.000000e+000  0.000000e+000
    outer loop
      vertex -2.000000e+001 -7.000000e+001  7.000000e+001
      vertex -2.000000e+001  0.000000e+000  7.000000e+001
      vertex -2.000000e+001 -7.000000e+001  0.000000e+000
    endloop
  endfacet
  facet normal -1.000000e+000  0.000000e+000  0.000000e+000
    outer loop
      vertex -2.000000e+001 -7.000000e+001  0.000000e+000
      vertex -2.000000e+001  0.000000e+000  7.000000e+001
      vertex -2.000000e+001  0.000000e+000  0.000000e+000
    endloop
  endfacet
  facet normal  1.000000e+000  0.000000e+000  0.000000e+000
    outer loop
      vertex -5.000000e+001 -7.000000e+001  0.000000e+000
      vertex -5.000000e+001  0.000000e+000  0.000000e+000
      vertex -5.000000e+001 -7.000000e+001  7.000000e+001
    endloop
  endfacet
  facet normal  1.000000e+000  -0.000000e+000  0.000000e+000
    outer loop
      vertex -5.000000e+001 -7.000000e+001  7.000000e+001
      vertex -5.000000e+001  0.000000e+000  0.000000e+000
      vertex -5.000000e+001  0.000000e+000  7.000000e+001
    endloop
  endfacet
  facet normal -3.036493e-001  0.000000e+000  9.527839e-001
    outer loop
      vertex -1.690000e+002 -6.900000e+001  1.000000e+001
      vertex -1.690000e+002 -1.000000e+000  1.000000e+001
      vertex -1.695786e+002 -6.957864e+001  9.815588e+000
    endloop
  endfacet
  facet normal -1.567501e-001 -1.333210e-003  9.876374e-001
    outer loop
      vertex -1.695786e+002 -6.957864e+001  9.815588e+000
      vertex -1.690000e+002 -1.000000e+000  1.000000e+001
      vertex -1.693092e+002 -9.509864e-001  9.950987e+000
    endloop
  endfacet
  facet normal -5.194497e-001  3.532989e-004  8.545009e-001
    outer loop
      vertex -1.695786e+002 -6.957864e+001  9.815588e+000
      vertex -1.693092e+002 -9.509864e-001  9.950987e+000
      vertex -1.697021e+002 -7.120459e-001  9.712046e+000
    endloop
  endfacet
  facet normal -7.097797e-001 -2.136391e-004  7.044236e-001
    outer loop
      vertex -1.695786e+002 -6.957864e+001  9.815588e+000
      vertex -1.697021e+002 -7.120459e-001  9.712046e+000
      vertex -1.698201e+002 -6.982011e+001  9.572208e+000
    endloop
  endfacet
  facet normal -8.788846e-001  5.351690e-004  4.770342e-001
    outer loop
      vertex -1.698201e+002 -6.982011e+001  9.572208e+000
      vertex -1.697021e+002 -7.120459e-001  9.712046e+000
      vertex -1.699798e+002 -1.998478e-001  9.199848e+000
    endloop
  endfacet
  facet normal -9.335423e-001 -2.243681e-004  3.584673e-001
    outer loop
      vertex -1.698201e+002 -6.982011e+001  9.572208e+000
      vertex -1.699798e+002 -1.998478e-001  9.199848e+000
      vertex -1.699923e+002 -6.999233e+001  9.123619e+000
    endloop
  endfacet
  facet normal -9.949445e-001  0.000000e+000  1.004269e-001
    outer loop
      vertex -1.700000e+002  0.000000e+000  9.000000e+000
      vertex -1.700000e+002 -7.000000e+001  9.000000e+000
      vertex -1.699798e+002 -1.998478e-001  9.199848e+000
    endloop
  endfacet
  facet normal -9.980786e-001  1.110392e-004  6.196109e-002
    outer loop
      vertex -1.699798e+002 -1.998478e-001  9.199848e+000
      vertex -1.700000e+002 -7.000000e+001  9.000000e+000
      vertex -1.699923e+002 -6.999233e+001  9.123619e+000
    endloop
  endfacet
  facet normal  0.000000e+000 -2.216397e-001  9.751287e-001
    outer loop
      vertex -6.000000e+001 -6.900000e+001  1.000000e+001
      vertex -1.690000e+002 -6.900000e+001  1.000000e+001
      vertex -5.990175e+001 -6.943225e+001  9.901752e+000
    endloop
  endfacet
  facet normal -3.437367e-004 -3.033408e-001  9.528821e-001
    outer loop
      vertex -5.990175e+001 -6.943225e+001  9.901752e+000
      vertex -1.690000e+002 -6.900000e+001  1.000000e+001
      vertex -1.695786e+002 -6.957864e+001  9.815588e+000
    endloop
  endfacet
  facet normal  4.699342e-005 -5.331787e-001  8.460026e-001
    outer loop
      vertex -5.990175e+001 -6.943225e+001  9.901752e+000
      vertex -1.695786e+002 -6.957864e+001  9.815588e+000
      vertex -5.977898e+001 -6.962704e+001  9.778980e+000
    endloop
  endfacet
  facet normal -1.302314e-004 -7.741145e-001  6.330455e-001
    outer loop
      vertex -5.977898e+001 -6.962704e+001  9.778980e+000
      vertex -1.695786e+002 -6.957864e+001  9.815588e+000
      vertex -5.946011e+001 -6.988786e+001  9.460115e+000
    endloop
  endfacet
  facet normal  2.793572e-004 -7.100243e-001  7.041771e-001
    outer loop
      vertex -5.946011e+001 -6.988786e+001  9.460115e+000
      vertex -1.695786e+002 -6.957864e+001  9.815588e+000
      vertex -1.698201e+002 -6.982011e+001  9.572208e+000
    endloop
  endfacet
  facet normal -3.563055e-004 -9.716405e-001  2.364628e-001
    outer loop
      vertex -5.946011e+001 -6.988786e+001  9.460115e+000
      vertex -1.698201e+002 -6.982011e+001  9.572208e+000
      vertex -5.900000e+001 -7.000000e+001  9.000000e+000
    endloop
  endfacet
  facet normal  3.345750e-004 -9.336034e-001  3.583079e-001
    outer loop
      vertex -5.900000e+001 -7.000000e+001  9.000000e+000
      vertex -1.698201e+002 -6.982011e+001  9.572208e+000
      vertex -1.699923e+002 -6.999233e+001  9.123619e+000
    endloop
  endfacet
  facet normal  0.000000e+000 -9.980820e-001  6.190659e-002
    outer loop
      vertex -5.900000e+001 -7.000000e+001  9.000000e+000
      vertex -1.699923e+002 -6.999233e+001  9.123619e+000
      vertex -1.700000e+002 -7.000000e+001  9.000000e+000
    endloop
  endfacet
  facet normal -9.751287e-001 -2.216397e-001  0.000000e+000
    outer loop
      vertex -6.000000e+001 -6.900000e+001  8.000000e+001
      vertex -6.000000e+001 -6.900000e+001  1.000000e+001
      vertex -5.990175e+001 -6.943225e+001  7.990176e+001
    endloop
  endfacet
  facet normal -9.751287e-001 -2.216397e-001  -0.000000e+000
    outer loop
      vertex -5.990175e+001 -6.943225e+001  7.990176e+001
      vertex -6.000000e+001 -6.900000e+001  1.000000e+001
      vertex -5.990175e+001 -6.943225e+001  9.901752e+000
    endloop
  endfacet
  facet normal -8.459893e-001 -5.331999e-001  0.000000e+000
    outer loop
      vertex -5.990175e+001 -6.943225e+001  7.990176e+001
      vertex -5.990175e+001 -6.943225e+001  9.901752e+000
      vertex -5.977898e+001 -6.962704e+001  7.977898e+001
    endloop
  endfacet
  facet normal -8.459893e-001 -5.331999e-001  -0.000000e+000
    outer loop
      vertex -5.977898e+001 -6.962704e+001  7.977898e+001
      vertex -5.990175e+001 -6.943225e+001  9.901752e+000
      vertex -5.977898e+001 -6.962704e+001  9.778980e+000
    endloop
  endfacet
  facet normal -6.331213e-001 -7.740526e-001  0.000000e+000
    outer loop
      vertex -5.977898e+001 -6.962704e+001  7.977898e+001
      vertex -5.977898e+001 -6.962704e+001  9.778980e+000
      vertex -5.946011e+001 -6.988786e+001  7.946011e+001
    endloop
  endfacet
  facet normal -6.331213e-001 -7.740526e-001  -0.000000e+000
    outer loop
      vertex -5.946011e+001 -6.988786e+001  7.946011e+001
      vertex -5.977898e+001 -6.962704e+001  9.778980e+000
      vertex -5.946011e+001 -6.988786e+001  9.460115e+000
    endloop
  endfacet
  facet normal -2.368001e-001 -9.715585e-001  0.000000e+000
    outer loop
      vertex -5.946011e+001 -6.988786e+001  7.946011e+001
      vertex -5.946011e+001 -6.988786e+001  9.460115e+000
      vertex -5.900000e+001 -7.000000e+001  7.900000e+001
    endloop
  endfacet
  facet normal -2.368001e-001 -9.715585e-001  -0.000000e+000
    outer loop
      vertex -5.900000e+001 -7.000000e+001  7.900000e+001
      vertex -5.946011e+001 -6.988786e+001  9.460115e+000
      vertex -5.900000e+001 -7.000000e+001  9.000000e+000
    endloop
  endfacet
  facet normal  0.000000e+000 -2.216315e-001  9.751305e-001
    outer loop
      vertex -1.000000e+001 -6.900000e+001  8.000000e+001
      vertex -6.000000e+001 -6.900000e+001  8.000000e+001
      vertex -1.009825e+001 -6.943225e+001  7.990176e+001
    endloop
  endfacet
  facet normal  0.000000e+000 -2.216315e-001  9.751304e-001
    outer loop
      vertex -1.009825e+001 -6.943225e+001  7.990176e+001
      vertex -6.000000e+001 -6.900000e+001  8.000000e+001
      vertex -5.990175e+001 -6.943225e+001  7.990176e+001
    endloop
  endfacet
  facet normal  0.000000e+000 -5.332236e-001  8.459744e-001
    outer loop
      vertex -1.009825e+001 -6.943225e+001  7.990176e+001
      vertex -5.990175e+001 -6.943225e+001  7.990176e+001
      vertex -1.022102e+001 -6.962704e+001  7.977898e+001
    endloop
  endfacet
  facet normal  1.302391e-007 -5.331998e-001  8.459893e-001
    outer loop
      vertex -1.022102e+001 -6.962704e+001  7.977898e+001
      vertex -5.990175e+001 -6.943225e+001  7.990176e+001
      vertex -5.977898e+001 -6.962704e+001  7.977898e+001
    endloop
  endfacet
  facet normal  9.746903e-008 -7.740490e-001  6.331258e-001
    outer loop
      vertex -1.022102e+001 -6.962704e+001  7.977898e+001
      vertex -5.977898e+001 -6.962704e+001  7.977898e+001
      vertex -1.053988e+001 -6.988786e+001  7.946011e+001
    endloop
  endfacet
  facet normal  0.000000e+000 -7.740563e-001  6.331167e-001
    outer loop
      vertex -1.053988e+001 -6.988786e+001  7.946011e+001
      vertex -5.977898e+001 -6.962704e+001  7.977898e+001
      vertex -5.946011e+001 -6.988786e+001  7.946011e+001
    endloop
  endfacet
  facet normal  0.000000e+000 -9.715583e-001  2.368000e-001
    outer loop
      vertex -1.053988e+001 -6.988786e+001  7.946011e+001
      vertex -5.946011e+001 -6.988786e+001  7.946011e+001
      vertex -1.100000e+001 -7.000000e+001  7.900000e+001
    endloop
  endfacet
  facet normal  0.000000e+000 -9.715585e-001  2.368000e-001
    outer loop
      vertex -1.100000e+001 -7.000000e+001  7.900000e+001
      vertex -5.946011e+001 -6.988786e+001  7.946011e+001
      vertex -5.900000e+001 -7.000000e+001  7.900000e+001
    endloop
  endfacet
  facet normal  9.751287e-001 -2.216397e-001  0.000000e+000
    outer loop
      vertex -1.000000e+001 -6.900000e+001  1.000000e+001
      vertex -1.000000e+001 -6.900000e+001  8.000000e+001
      vertex -1.009825e+001 -6.943225e+001  9.901752e+000
    endloop
  endfacet
  facet normal  9.751287e-001 -2.216397e-001  0.000000e+000
    outer loop
      vertex -1.009825e+001 -6.943225e+001  9.901752e+000
      vertex -1.000000e+001 -6.900000e+001  8.000000e+001
      vertex -1.009825e+001 -6.943225e+001  7.990176e+001
    endloop
  endfacet
  facet normal  8.459893e-001 -5.331999e-001  0.000000e+000
    outer loop
      vertex -1.009825e+001 -6.943225e+001  9.901752e+000
      vertex -1.009825e+001 -6.943225e+001  7.990176e+001
      vertex -1.022102e+001 -6.962704e+001  9.778980e+000
    endloop
  endfacet
  facet normal  8.459893e-001 -5.331999e-001  0.000000e+000
    outer loop
      vertex -1.022102e+001 -6.962704e+001  9.778980e+000
      vertex -1.009825e+001 -6.943225e+001  7.990176e+001
      vertex -1.022102e+001 -6.962704e+001  7.977898e+001
    endloop
  endfacet
  facet normal  6.331236e-001 -7.740508e-001  0.000000e+000
    outer loop
      vertex -1.022102e+001 -6.962704e+001  9.778980e+000
      vertex -1.022102e+001 -6.962704e+001  7.977898e+001
      vertex -1.053988e+001 -6.988786e+001  9.460115e+000
    endloop
  endfacet
  facet normal  6.331236e-001 -7.740508e-001  0.000000e+000
    outer loop
      vertex -1.053988e+001 -6.988786e+001  9.460115e+000
      vertex -1.022102e+001 -6.962704e+001  7.977898e+001
      vertex -1.053988e+001 -6.988786e+001  7.946011e+001
    endloop
  endfacet
  facet normal  2.367991e-001 -9.715586e-001  0.000000e+000
    outer loop
      vertex -1.053988e+001 -6.988786e+001  9.460115e+000
      vertex -1.053988e+001 -6.988786e+001  7.946011e+001
      vertex -1.100000e+001 -7.000000e+001  9.000000e+000
    endloop
  endfacet
  facet normal  2.367991e-001 -9.715586e-001  0.000000e+000
    outer loop
      vertex -1.100000e+001 -7.000000e+001  9.000000e+000
      vertex -1.053988e+001 -6.988786e+001  7.946011e+001
      vertex -1.100000e+001 -7.000000e+001  7.900000e+001
    endloop
  endfacet
  facet normal  0.000000e+000 -3.036529e-001  9.527828e-001
    outer loop
      vertex  4.900000e+001 -6.900000e+001  1.000000e+001
      vertex -1.000000e+001 -6.900000e+001  1.000000e+001
      vertex  4.957863e+001 -6.957864e+001  9.815588e+000
    endloop
  endfacet
  facet normal  8.637460e-004 -2.218263e-001  9.750857e-001
    outer loop
      vertex  4.957863e+001 -6.957864e+001  9.815588e+000
      vertex -1.000000e+001 -6.900000e+001  1.000000e+001
      vertex -1.009825e+001 -6.943225e+001  9.901752e+000
    endloop
  endfacet
  facet normal -8.630702e-005 -5.331610e-001  8.460138e-001
    outer loop
      vertex  4.957863e+001 -6.957864e+001  9.815588e+000
      vertex -1.009825e+001 -6.943225e+001  9.901752e+000
      vertex -1.022102e+001 -6.962704e+001  9.778980e+000
    endloop
  endfacet
  facet normal  1.433953e-004 -7.098146e-001  7.043885e-001
    outer loop
      vertex  4.957863e+001 -6.957864e+001  9.815588e+000
      vertex -1.022102e+001 -6.962704e+001  9.778980e+000
      vertex  4.982011e+001 -6.982011e+001  9.572208e+000
    endloop
  endfacet
  facet normal -3.074615e-004 -7.739000e-001  6.333078e-001
    outer loop
      vertex  4.982011e+001 -6.982011e+001  9.572208e+000
      vertex -1.022102e+001 -6.962704e+001  9.778980e+000
      vertex -1.053988e+001 -6.988786e+001  9.460115e+000
    endloop
  endfacet
  facet normal  3.819386e-004 -9.335114e-001  3.585477e-001
    outer loop
      vertex  4.982011e+001 -6.982011e+001  9.572208e+000
      vertex -1.053988e+001 -6.988786e+001  9.460115e+000
      vertex  4.999233e+001 -6.999233e+001  9.123619e+000
    endloop
  endfacet
  facet normal -3.585023e-004 -9.714761e-001  2.371375e-001
    outer loop
      vertex  4.999233e+001 -6.999233e+001  9.123619e+000
      vertex -1.053988e+001 -6.988786e+001  9.460115e+000
      vertex -1.100000e+001 -7.000000e+001  9.000000e+000
    endloop
  endfacet
  facet normal  0.000000e+000 -9.980819e-001  6.190658e-002
    outer loop
      vertex  4.999233e+001 -6.999233e+001  9.123619e+000
      vertex -1.100000e+001 -7.000000e+001  9.000000e+000
      vertex  5.000000e+001 -7.000000e+001  9.000000e+000
    endloop
  endfacet
  facet normal  9.980800e-001  0.000000e+000  6.193726e-002
    outer loop
      vertex  5.000000e+001 -7.000000e+001  9.000000e+000
      vertex  5.000000e+001 -5.551115e-017  9.000000e+000
      vertex  4.999233e+001 -6.999233e+001  9.123619e+000
    endloop
  endfacet
  facet normal  9.949376e-001  6.844376e-005  1.004947e-001
    outer loop
      vertex  4.999233e+001 -6.999233e+001  9.123619e+000
      vertex  5.000000e+001 -5.551115e-017  9.000000e+000
      vertex  4.997983e+001 -1.998478e-001  9.199848e+000
    endloop
  endfacet
  facet normal  9.335343e-001 -2.243412e-004  3.584880e-001
    outer loop
      vertex  4.999233e+001 -6.999233e+001  9.123619e+000
      vertex  4.997983e+001 -1.998478e-001  9.199848e+000
      vertex  4.982011e+001 -6.982011e+001  9.572208e+000
    endloop
  endfacet
  facet normal  8.788846e-001  5.350721e-004  4.770341e-001
    outer loop
      vertex  4.982011e+001 -6.982011e+001  9.572208e+000
      vertex  4.997983e+001 -1.998478e-001  9.199848e+000
      vertex  4.970213e+001 -7.120459e-001  9.712046e+000
    endloop
  endfacet
  facet normal  7.097741e-001 -2.137384e-004  7.044293e-001
    outer loop
      vertex  4.982011e+001 -6.982011e+001  9.572208e+000
      vertex  4.970213e+001 -7.120459e-001  9.712046e+000
      vertex  4.957863e+001 -6.957864e+001  9.815588e+000
    endloop
  endfacet
  facet normal  3.044590e-001  8.861442e-004  9.525250e-001
    outer loop
      vertex  4.957863e+001 -6.957864e+001  9.815588e+000
      vertex  4.970213e+001 -7.120459e-001  9.712046e+000
      vertex  4.900000e+001 -6.900000e+001  1.000000e+001
    endloop
  endfacet
  facet normal  5.203787e-001 -1.749668e-003  8.539338e-001
    outer loop
      vertex  4.900000e+001 -6.900000e+001  1.000000e+001
      vertex  4.970213e+001 -7.120459e-001  9.712046e+000
      vertex  4.930923e+001 -9.509864e-001  9.950987e+000
    endloop
  endfacet
  facet normal  1.565460e-001  0.000000e+000  9.876707e-001
    outer loop
      vertex  4.900000e+001 -6.900000e+001  1.000000e+001
      vertex  4.930923e+001 -9.509864e-001  9.950987e+000
      vertex  4.900000e+001 -1.000000e+000  1.000000e+001
    endloop
  endfacet
  facet normal  0.000000e+000  1.000000e+000  0.000000e+000
    outer loop
      vertex -6.000000e+001  0.000000e+000  0.000000e+000
      vertex -9.500000e+001  0.000000e+000  0.000000e+000
      vertex -6.000000e+001  0.000000e+000  9.000000e+000
    endloop
  endfacet
  facet normal  0.000000e+000  1.000000e+000  0.000000e+000
    outer loop
      vertex -6.000000e+001  0.000000e+000  9.000000e+000
      vertex -9.500000e+001  0.000000e+000  0.000000e+000
      vertex -9.500000e+001  0.000000e+000  9.000000e+000
    endloop
  endfacet
  facet normal -2.393159e-001  9.709417e-001  0.000000e+000
    outer loop
      vertex -1.169866e+002 -2.481772e+001  0.000000e+000
      vertex -1.111349e+002 -2.337541e+001  9.000000e+000
      vertex -1.111349e+002 -2.337541e+001  0.000000e+000
    endloop
  endfacet
  facet normal -4.647229e-001  8.854563e-001  0.000000e+000
    outer loop
      vertex -1.111349e+002 -2.337541e+001  0.000000e+000
      vertex -1.111349e+002 -2.337541e+001  9.000000e+000
      vertex -1.057984e+002 -2.057460e+001  9.000000e+000
    endloop
  endfacet
  facet normal -4.647229e-001  8.854563e-001  0.000000e+000
    outer loop
      vertex -1.111349e+002 -2.337541e+001  0.000000e+000
      vertex -1.057984e+002 -2.057460e+001  9.000000e+000
      vertex -1.057984e+002 -2.057460e+001  0.000000e+000
    endloop
  endfacet
  facet normal -6.631230e-001  7.485105e-001  0.000000e+000
    outer loop
      vertex -1.057984e+002 -2.057460e+001  0.000000e+000
      vertex -1.057984e+002 -2.057460e+001  9.000000e+000
      vertex -1.012872e+002 -1.657807e+001  9.000000e+000
    endloop
  endfacet
  facet normal -6.631230e-001  7.485105e-001  0.000000e+000
    outer loop
      vertex -1.057984e+002 -2.057460e+001  0.000000e+000
      vertex -1.012872e+002 -1.657807e+001  9.000000e+000
      vertex -1.012872e+002 -1.657807e+001  0.000000e+000
    endloop
  endfacet
  facet normal -8.229840e-001  5.680645e-001  0.000000e+000
    outer loop
      vertex -1.012872e+002 -1.657807e+001  0.000000e+000
      vertex -1.012872e+002 -1.657807e+001  9.000000e+000
      vertex -9.786360e+001 -1.161808e+001  9.000000e+000
    endloop
  endfacet
  facet normal -8.229840e-001  5.680645e-001  0.000000e+000
    outer loop
      vertex -1.012872e+002 -1.657807e+001  0.000000e+000
      vertex -9.786360e+001 -1.161808e+001  9.000000e+000
      vertex -9.786360e+001 -1.161808e+001  0.000000e+000
    endloop
  endfacet
  facet normal -9.350162e-001  3.546050e-001  0.000000e+000
    outer loop
      vertex -9.786360e+001 -1.161808e+001  0.000000e+000
      vertex -9.786360e+001 -1.161808e+001  9.000000e+000
      vertex -9.572646e+001 -5.982892e+000  9.000000e+000
    endloop
  endfacet
  facet normal -9.350162e-001  3.546050e-001  0.000000e+000
    outer loop
      vertex -9.786360e+001 -1.161808e+001  0.000000e+000
      vertex -9.572646e+001 -5.982892e+000  9.000000e+000
      vertex -9.572646e+001 -5.982892e+000  0.000000e+000
    endloop
  endfacet
  facet normal -9.927088e-001  1.205369e-001  0.000000e+000
    outer loop
      vertex -9.572646e+001 -5.982892e+000  0.000000e+000
      vertex -9.572646e+001 -5.982892e+000  9.000000e+000
      vertex -9.500000e+001  0.000000e+000  9.000000e+000
    endloop
  endfacet
  facet normal -9.927088e-001  1.205369e-001  0.000000e+000
    outer loop
      vertex -9.572646e+001 -5.982892e+000  0.000000e+000
      vertex -9.500000e+001  0.000000e+000  9.000000e+000
      vertex -9.500000e+001  0.000000e+000  0.000000e+000
    endloop
  endfacet
  facet normal -2.393159e-001  9.709417e-001  0.000000e+000
    outer loop
      vertex -1.111349e+002 -2.337541e+001  9.000000e+000
      vertex -1.169866e+002 -2.481772e+001  0.000000e+000
      vertex -1.169866e+002 -2.481772e+001  9.000000e+000
    endloop
  endfacet
  facet normal  0.000000e+000  1.000000e+000  0.000000e+000
    outer loop
      vertex -1.169866e+002 -2.481772e+001  9.000000e+000
      vertex -1.169866e+002 -2.481772e+001  0.000000e+000
      vertex -1.230134e+002 -2.481772e+001  0.000000e+000
    endloop
  endfacet
  facet normal  0.000000e+000  1.000000e+000  0.000000e+000
    outer loop
      vertex -1.169866e+002 -2.481772e+001  9.000000e+000
      vertex -1.230134e+002 -2.481772e+001  0.000000e+000
      vertex -1.230134e+002 -2.481772e+001  9.000000e+000
    endloop
  endfacet
  facet normal  2.393156e-001  9.709418e-001  0.000000e+000
    outer loop
      vertex -1.230134e+002 -2.481772e+001  9.000000e+000
      vertex -1.230134e+002 -2.481772e+001  0.000000e+000
      vertex -1.288651e+002 -2.337541e+001  0.000000e+000
    endloop
  endfacet
  facet normal  2.393156e-001  9.709418e-001  -0.000000e+000
    outer loop
      vertex -1.230134e+002 -2.481772e+001  9.000000e+000
      vertex -1.288651e+002 -2.337541e+001  0.000000e+000
      vertex -1.288651e+002 -2.337541e+001  9.000000e+000
    endloop
  endfacet
  facet normal  4.647239e-001  8.854556e-001  0.000000e+000
    outer loop
      vertex -1.288651e+002 -2.337541e+001  9.000000e+000
      vertex -1.288651e+002 -2.337541e+001  0.000000e+000
      vertex -1.342016e+002 -2.057460e+001  0.000000e+000
    endloop
  endfacet
  facet normal  4.647239e-001  8.854556e-001  -0.000000e+000
    outer loop
      vertex -1.288651e+002 -2.337541e+001  9.000000e+000
      vertex -1.342016e+002 -2.057460e+001  0.000000e+000
      vertex -1.342016e+002 -2.057460e+001  9.000000e+000
    endloop
  endfacet
  facet normal  6.631223e-001  7.485110e-001  0.000000e+000
    outer loop
      vertex -1.342016e+002 -2.057460e+001  9.000000e+000
      vertex -1.342016e+002 -2.057460e+001  0.000000e+000
      vertex -1.387128e+002 -1.657807e+001  0.000000e+000
    endloop
  endfacet
  facet normal  6.631223e-001  7.485110e-001  -0.000000e+000
    outer loop
      vertex -1.342016e+002 -2.057460e+001  9.000000e+000
      vertex -1.387128e+002 -1.657807e+001  0.000000e+000
      vertex -1.387128e+002 -1.657807e+001  9.000000e+000
    endloop
  endfacet
  facet normal  8.229840e-001  5.680645e-001  0.000000e+000
    outer loop
      vertex -1.387128e+002 -1.657807e+001  9.000000e+000
      vertex -1.387128e+002 -1.657807e+001  0.000000e+000
      vertex -1.421364e+002 -1.161808e+001  0.000000e+000
    endloop
  endfacet
  facet normal  8.229840e-001  5.680645e-001  -0.000000e+000
    outer loop
      vertex -1.387128e+002 -1.657807e+001  9.000000e+000
      vertex -1.421364e+002 -1.161808e+001  0.000000e+000
      vertex -1.421364e+002 -1.161808e+001  9.000000e+000
    endloop
  endfacet
  facet normal  9.350162e-001  3.546050e-001  0.000000e+000
    outer loop
      vertex -1.421364e+002 -1.161808e+001  9.000000e+000
      vertex -1.421364e+002 -1.161808e+001  0.000000e+000
      vertex -1.442735e+002 -5.982892e+000  0.000000e+000
    endloop
  endfacet
  facet normal  9.350162e-001  3.546050e-001  -0.000000e+000
    outer loop
      vertex -1.421364e+002 -1.161808e+001  9.000000e+000
      vertex -1.442735e+002 -5.982892e+000  0.000000e+000
      vertex -1.442735e+002 -5.982892e+000  9.000000e+000
    endloop
  endfacet
  facet normal  9.927088e-001  1.205369e-001  0.000000e+000
    outer loop
      vertex -1.442735e+002 -5.982892e+000  9.000000e+000
      vertex -1.442735e+002 -5.982892e+000  0.000000e+000
      vertex -1.450000e+002  0.000000e+000  0.000000e+000
    endloop
  endfacet
  facet normal  9.927088e-001  1.205369e-001 -4.100283e-017
    outer loop
      vertex -1.442735e+002 -5.982892e+000  9.000000e+000
      vertex -1.450000e+002  0.000000e+000  0.000000e+000
      vertex -1.450000e+002  3.061516e-015  9.000000e+000
    endloop
  endfacet
  facet normal  7.071068e-001  7.071068e-001  0.000000e+000
    outer loop
      vertex -1.100000e+001  0.000000e+000  9.000000e+000
      vertex -1.100000e+001  0.000000e+000  7.900000e+001
      vertex -1.000000e+001 -1.000000e+000  1.000000e+001
    endloop
  endfacet
  facet normal  7.071068e-001  7.071068e-001  -0.000000e+000
    outer loop
      vertex -1.000000e+001 -1.000000e+000  1.000000e+001
      vertex -1.100000e+001  0.000000e+000  7.900000e+001
      vertex -1.000000e+001 -1.000000e+000  8.000000e+001
    endloop
  endfacet
  facet normal  -0.000000e+000  7.071068e-001  7.071068e-001
    outer loop
      vertex -1.100000e+001  0.000000e+000  7.900000e+001
      vertex -5.900000e+001  0.000000e+000  7.900000e+001
      vertex -1.000000e+001 -1.000000e+000  8.000000e+001
    endloop
  endfacet
  facet normal  0.000000e+000  7.071068e-001  7.071068e-001
    outer loop
      vertex -1.000000e+001 -1.000000e+000  8.000000e+001
      vertex -5.900000e+001  0.000000e+000  7.900000e+001
      vertex -6.000000e+001 -1.000000e+000  8.000000e+001
    endloop
  endfacet
  facet normal -7.071068e-001  7.071068e-001  0.000000e+000
    outer loop
      vertex -5.900000e+001  0.000000e+000  7.900000e+001
      vertex -5.900000e+001  0.000000e+000  9.000000e+000
      vertex -6.000000e+001 -1.000000e+000  8.000000e+001
    endloop
  endfacet
  facet normal -7.071068e-001  7.071068e-001  0.000000e+000
    outer loop
      vertex -6.000000e+001 -1.000000e+000  8.000000e+001
      vertex -5.900000e+001  0.000000e+000  9.000000e+000
      vertex -6.000000e+001 -1.000000e+000  1.000000e+001
    endloop
  endfacet
  facet normal  -0.000000e+000  7.071068e-001  7.071068e-001
    outer loop
      vertex -6.000000e+001  0.000000e+000  9.000000e+000
      vertex -9.500000e+001  0.000000e+000  9.000000e+000
      vertex -6.000000e+001 -1.000000e+000  1.000000e+001
    endloop
  endfacet
  facet normal  0.000000e+000  7.071068e-001  7.071068e-001
    outer loop
      vertex -6.000000e+001 -1.000000e+000  1.000000e+001
      vertex -9.500000e+001  0.000000e+000  9.000000e+000
      vertex -9.401924e+001 -1.000000e+000  1.000000e+001
    endloop
  endfacet
  facet normal  -0.000000e+000  7.071068e-001  7.071068e-001
    outer loop
      vertex -5.900000e+001  0.000000e+000  9.000000e+000
      vertex -6.000000e+001  0.000000e+000  9.000000e+000
      vertex -6.000000e+001 -1.000000e+000  1.000000e+001
    endloop
  endfacet
  facet normal  6.697177e-001  8.131858e-002  7.381500e-001
    outer loop
      vertex -1.459808e+002 -1.000000e+000  1.000000e+001
      vertex -1.442735e+002 -5.982892e+000  9.000000e+000
      vertex -1.450000e+002  3.061516e-015  9.000000e+000
    endloop
  endfacet
  facet normal  7.303942e-001  1.151313e-001  6.732525e-001
    outer loop
      vertex -1.459808e+002 -1.000000e+000  1.000000e+001
      vertex -1.450286e+002 -7.040534e+000  1.000000e+001
      vertex -1.442735e+002 -5.982892e+000  9.000000e+000
    endloop
  endfacet
  facet normal -7.303921e-001  1.151301e-001  6.732551e-001
    outer loop
      vertex -9.401924e+001 -1.000000e+000  1.000000e+001
      vertex -9.572646e+001 -5.982892e+000  9.000000e+000
      vertex -9.497140e+001 -7.040534e+000  1.000000e+001
    endloop
  endfacet
  facet normal -6.697177e-001  8.131858e-002  7.381500e-001
    outer loop
      vertex -9.401924e+001 -1.000000e+000  1.000000e+001
      vertex -9.500000e+001  0.000000e+000  9.000000e+000
      vertex -9.572646e+001 -5.982892e+000  9.000000e+000
    endloop
  endfacet
  facet normal -6.788741e-001  2.807106e-001  6.784773e-001
    outer loop
      vertex -9.786360e+001 -1.161808e+001  9.000000e+000
      vertex -9.730808e+001 -1.269160e+001  1.000000e+001
      vertex -9.497140e+001 -7.040534e+000  1.000000e+001
    endloop
  endfacet
  facet normal -6.349291e-001  2.407970e-001  7.340857e-001
    outer loop
      vertex -9.786360e+001 -1.161808e+001  9.000000e+000
      vertex -9.497140e+001 -7.040534e+000  1.000000e+001
      vertex -9.572646e+001 -5.982892e+000  9.000000e+000
    endloop
  endfacet
  facet normal -5.904216e-001  4.285229e-001  6.839374e-001
    outer loop
      vertex -1.012872e+002 -1.657807e+001  9.000000e+000
      vertex -1.009000e+002 -1.764060e+001  1.000000e+001
      vertex -9.730808e+001 -1.269160e+001  1.000000e+001
    endloop
  endfacet
  facet normal -5.627750e-001  3.884553e-001  7.296485e-001
    outer loop
      vertex -1.012872e+002 -1.657807e+001  9.000000e+000
      vertex -9.730808e+001 -1.269160e+001  1.000000e+001
      vertex -9.786360e+001 -1.161808e+001  9.000000e+000
    endloop
  endfacet
  facet normal -4.705172e-001  5.504933e-001  6.896164e-001
    outer loop
      vertex -1.057984e+002 -2.057460e+001  9.000000e+000
      vertex -1.055485e+002 -2.161377e+001  1.000000e+001
      vertex -1.009000e+002 -1.764060e+001  1.000000e+001
    endloop
  endfacet
  facet normal -4.568498e-001  5.156764e-001  7.248214e-001
    outer loop
      vertex -1.057984e+002 -2.057460e+001  9.000000e+000
      vertex -1.009000e+002 -1.764060e+001  1.000000e+001
      vertex -1.012872e+002 -1.657807e+001  9.000000e+000
    endloop
  endfacet
  facet normal -3.263634e-001  6.401356e-001  6.954949e-001
    outer loop
      vertex -1.111349e+002 -2.337541e+001  9.000000e+000
      vertex -1.109965e+002 -2.439132e+001  1.000000e+001
      vertex -1.055485e+002 -2.161377e+001  1.000000e+001
    endloop
  endfacet
  facet normal -3.227069e-001  6.148673e-001  7.195821e-001
    outer loop
      vertex -1.111349e+002 -2.337541e+001  9.000000e+000
      vertex -1.055485e+002 -2.161377e+001  1.000000e+001
      vertex -1.057984e+002 -2.057460e+001  9.000000e+000
    endloop
  endfacet
  facet normal  4.705166e-001  5.504935e-001  6.896165e-001
    outer loop
      vertex -1.342016e+002 -2.057460e+001  9.000000e+000
      vertex -1.391000e+002 -1.764060e+001  1.000000e+001
      vertex -1.344515e+002 -2.161377e+001  1.000000e+001
    endloop
  endfacet
  facet normal  3.227077e-001  6.148669e-001  7.195820e-001
    outer loop
      vertex -1.342016e+002 -2.057460e+001  9.000000e+000
      vertex -1.344515e+002 -2.161377e+001  1.000000e+001
      vertex -1.288651e+002 -2.337541e+001  9.000000e+000
    endloop
  endfacet
  facet normal  5.904211e-001  4.285234e-001  6.839377e-001
    outer loop
      vertex -1.387128e+002 -1.657807e+001  9.000000e+000
      vertex -1.426919e+002 -1.269160e+001  1.000000e+001
      vertex -1.391000e+002 -1.764060e+001  1.000000e+001
    endloop
  endfacet
  facet normal  4.568493e-001  5.156767e-001  7.248214e-001
    outer loop
      vertex -1.387128e+002 -1.657807e+001  9.000000e+000
      vertex -1.391000e+002 -1.764060e+001  1.000000e+001
      vertex -1.342016e+002 -2.057460e+001  9.000000e+000
    endloop
  endfacet
  facet normal  6.788730e-001  2.807083e-001  6.784793e-001
    outer loop
      vertex -1.421364e+002 -1.161808e+001  9.000000e+000
      vertex -1.450286e+002 -7.040534e+000  1.000000e+001
      vertex -1.426919e+002 -1.269160e+001  1.000000e+001
    endloop
  endfacet
  facet normal  5.627731e-001  3.884540e-001  7.296504e-001
    outer loop
      vertex -1.421364e+002 -1.161808e+001  9.000000e+000
      vertex -1.426919e+002 -1.269160e+001  1.000000e+001
      vertex -1.387128e+002 -1.657807e+001  9.000000e+000
    endloop
  endfacet
  facet normal  6.349313e-001  2.407978e-001  7.340835e-001
    outer loop
      vertex -1.442735e+002 -5.982892e+000  9.000000e+000
      vertex -1.450286e+002 -7.040534e+000  1.000000e+001
      vertex -1.421364e+002 -1.161808e+001  9.000000e+000
    endloop
  endfacet
  facet normal -1.635005e-001  6.806605e-001  7.141210e-001
    outer loop
      vertex -1.109965e+002 -2.439132e+001  1.000000e+001
      vertex -1.111349e+002 -2.337541e+001  9.000000e+000
      vertex -1.169424e+002 -2.581959e+001  1.000000e+001
    endloop
  endfacet
  facet normal -1.706391e-001  6.923094e-001  7.011348e-001
    outer loop
      vertex -1.169424e+002 -2.581959e+001  1.000000e+001
      vertex -1.111349e+002 -2.337541e+001  9.000000e+000
      vertex -1.169866e+002 -2.481772e+001  9.000000e+000
    endloop
  endfacet
  facet normal  0.000000e+000  7.064462e-001  7.077667e-001
    outer loop
      vertex -1.169424e+002 -2.581959e+001  1.000000e+001
      vertex -1.169866e+002 -2.481772e+001  9.000000e+000
      vertex -1.230576e+002 -2.581959e+001  1.000000e+001
    endloop
  endfacet
  facet normal  0.000000e+000  7.064463e-001  7.077668e-001
    outer loop
      vertex -1.230576e+002 -2.581959e+001  1.000000e+001
      vertex -1.169866e+002 -2.481772e+001  9.000000e+000
      vertex -1.230134e+002 -2.481772e+001  9.000000e+000
    endloop
  endfacet
  facet normal  1.664428e-001  6.929094e-001  7.015507e-001
    outer loop
      vertex -1.230576e+002 -2.581959e+001  1.000000e+001
      vertex -1.230134e+002 -2.481772e+001  9.000000e+000
      vertex -1.290035e+002 -2.439132e+001  1.000000e+001
    endloop
  endfacet
  facet normal  1.675788e-001  6.798941e-001  7.139057e-001
    outer loop
      vertex -1.290035e+002 -2.439132e+001  1.000000e+001
      vertex -1.230134e+002 -2.481772e+001  9.000000e+000
      vertex -1.288651e+002 -2.337541e+001  9.000000e+000
    endloop
  endfacet
  facet normal  3.263644e-001  6.401366e-001  6.954936e-001
    outer loop
      vertex -1.290035e+002 -2.439132e+001  1.000000e+001
      vertex -1.288651e+002 -2.337541e+001  9.000000e+000
      vertex -1.344515e+002 -2.161377e+001  1.000000e+001
    endloop
  endfacet
  facet normal  0.000000e+000  0.000000e+000 -1.000000e+000
    outer loop
      vertex -5.000000e+001 -7.000000e+001  7.000000e+001
      vertex -5.000000e+001  0.000000e+000  7.000000e+001
      vertex -2.000000e+001 -7.000000e+001  7.000000e+001
    endloop
  endfacet
  facet normal  0.000000e+000  0.000000e+000 -1.000000e+000
    outer loop
      vertex -2.000000e+001 -7.000000e+001  7.000000e+001
      vertex -5.000000e+001  0.000000e+000  7.000000e+001
      vertex -2.000000e+001  0.000000e+000  7.000000e+001
    endloop
  endfacet
endsolid CATIA STL
